<svg width="125" height="32" viewBox="0 0 125 32" fill="none" xmlns="http://www.w3.org/2000/svg">
<g clip-path="url(#clip0)">
<path d="M8.49906 29.4275H7.42188V8.9632C7.42188 8.21182 7.72036 7.49122 8.25166 6.95991C8.78297 6.42861 9.50357 6.13013 10.2549 6.13013C11.0063 6.13013 11.7269 6.42861 12.2582 6.95991C12.7895 7.49122 13.088 8.21182 13.088 8.9632V13.4824H17.771C17.9075 13.4821 18.0384 13.4277 18.1349 13.3311C18.2314 13.2345 18.2857 13.1036 18.2859 12.9671V7.04314H19.3627V12.9671C19.3627 13.3895 19.1949 13.7945 18.8963 14.0932C18.5976 14.3918 18.1926 14.5596 17.7702 14.5596H12.0112V8.9632C12.0044 8.50193 11.8164 8.06185 11.4878 7.73805C11.1593 7.41425 10.7165 7.23274 10.2551 7.23274C9.79382 7.23274 9.35102 7.41425 9.02243 7.73805C8.69384 8.06185 8.50584 8.50193 8.49906 8.9632V29.4275Z" fill="#FF5200"/>
<path d="M8.68779 29.6172H7.23145V8.96333C7.23145 8.16167 7.5499 7.39284 8.11676 6.82599C8.68361 6.25913 9.45243 5.94067 10.2541 5.94067C11.0557 5.94067 11.8246 6.25913 12.3914 6.82599C12.9583 7.39284 13.2767 8.16167 13.2767 8.96333V13.2929H17.7701C17.8565 13.2928 17.9393 13.2585 18.0003 13.1974C18.0614 13.1364 18.0957 13.0536 18.0958 12.9672V6.85369H19.5518V12.9672C19.5518 13.4399 19.364 13.8931 19.0298 14.2273C18.6956 14.5615 18.2424 14.7493 17.7697 14.7493H11.8208V8.96333C11.8144 8.55209 11.6465 8.15986 11.3534 7.8713C11.0604 7.58275 10.6656 7.42101 10.2543 7.42101C9.84299 7.42101 9.4482 7.58275 9.15512 7.8713C8.86204 8.15986 8.69419 8.55209 8.68779 8.96333V29.6172ZM7.6106 29.2381H8.30863V8.96333C8.31577 8.45201 8.5239 7.96406 8.888 7.605C9.2521 7.24594 9.74292 7.04465 10.2543 7.04465C10.7656 7.04465 11.2565 7.24594 11.6206 7.605C11.9847 7.96406 12.1928 8.45201 12.1999 8.96333V14.3697H17.7701C18.1422 14.3697 18.499 14.2219 18.7621 13.9588C19.0252 13.6958 19.173 13.3389 19.173 12.9669V7.23285H18.4746V12.9672C18.4744 13.1541 18.4001 13.3333 18.2679 13.4654C18.1358 13.5976 17.9566 13.6719 17.7697 13.6721H12.8976V8.96333C12.8976 8.26223 12.6191 7.58984 12.1233 7.09409C11.6276 6.59834 10.9552 6.31983 10.2541 6.31983C9.55299 6.31983 8.88061 6.59834 8.38486 7.09409C7.88911 7.58984 7.6106 8.26223 7.6106 8.96333V29.2381Z" fill="#FF5200"/>
<path d="M21.1673 26.7353C20.4161 26.7344 19.6959 26.4356 19.1647 25.9044C18.6335 25.3732 18.3347 24.653 18.3338 23.9018V19.383H13.6497C13.5132 19.3831 13.3823 19.4374 13.2857 19.5339C13.1892 19.6305 13.1349 19.7614 13.1348 19.8979V25.8219H12.0576V19.8979C12.0576 19.4756 12.2254 19.0705 12.524 18.7719C12.8227 18.4732 13.2277 18.3054 13.6501 18.3054H19.4099V23.9018C19.4065 24.1346 19.4494 24.3657 19.5361 24.5818C19.6228 24.7978 19.7516 24.9945 19.915 25.1603C20.0784 25.3262 20.2731 25.4578 20.4879 25.5477C20.7027 25.6376 20.9331 25.6839 21.166 25.6839C21.3988 25.6839 21.6292 25.6376 21.844 25.5477C22.0588 25.4578 22.2535 25.3262 22.4169 25.1603C22.5803 24.9945 22.7091 24.7978 22.7958 24.5818C22.8825 24.3657 22.9254 24.1346 22.922 23.9018V3.4375H23.9992V23.9018C23.9984 24.6528 23.6998 25.3728 23.169 25.9039C22.6381 26.4351 21.9182 26.7341 21.1673 26.7353Z" fill="white"/>
<path d="M21.1674 26.925C20.3659 26.9241 19.5975 26.6053 19.0308 26.0386C18.4641 25.4718 18.1453 24.7034 18.1444 23.9019V19.5727H13.6498C13.5636 19.5728 13.4809 19.6071 13.4199 19.6681C13.3589 19.7291 13.3246 19.8118 13.3245 19.898V26.0116H11.8682V19.898C11.8682 19.4254 12.0559 18.9721 12.3901 18.6379C12.7243 18.3037 13.1776 18.116 13.6502 18.116H19.5996V23.9019C19.5964 24.1097 19.6345 24.316 19.7118 24.5089C19.789 24.7018 19.9039 24.8774 20.0497 25.0255C20.1955 25.1735 20.3692 25.2911 20.5609 25.3714C20.7526 25.4517 20.9583 25.493 21.1661 25.493C21.3739 25.493 21.5796 25.4517 21.7712 25.3714C21.9629 25.2911 22.1367 25.1735 22.2825 25.0255C22.4283 24.8774 22.5431 24.7018 22.6204 24.5089C22.6977 24.316 22.7358 24.1097 22.7326 23.9019V3.24805H24.1889V23.9019C24.188 24.7032 23.8694 25.4713 23.303 26.038C22.7366 26.6047 21.9686 26.9237 21.1674 26.925ZM13.6498 19.1936H18.5224V23.9019C18.5182 24.2518 18.5835 24.599 18.7145 24.9234C18.8454 25.2478 19.0395 25.543 19.2854 25.7919C19.5313 26.0407 19.8242 26.2383 20.147 26.3732C20.4698 26.508 20.8162 26.5775 21.1661 26.5775C21.5159 26.5775 21.8623 26.508 22.1852 26.3732C22.508 26.2383 22.8008 26.0407 23.0467 25.7919C23.2926 25.543 23.4867 25.2478 23.6177 24.9234C23.7487 24.599 23.8139 24.2518 23.8098 23.9019V3.62721H23.1117V23.9019C23.1153 24.1597 23.0677 24.4157 22.9715 24.6549C22.8753 24.8941 22.7326 25.1118 22.5516 25.2954C22.3705 25.479 22.1548 25.6247 21.917 25.7242C21.6791 25.8237 21.4239 25.8749 21.1661 25.8749C20.9083 25.8749 20.653 25.8237 20.4152 25.7242C20.1773 25.6247 19.9616 25.479 19.7806 25.2954C19.5996 25.1118 19.4568 24.8941 19.3607 24.6549C19.2645 24.4157 19.2168 24.1597 19.2204 23.9019V18.4955H13.6498C13.2778 18.4955 12.9209 18.6433 12.6578 18.9064C12.3947 19.1695 12.2469 19.5263 12.2469 19.8984V25.6324H12.945V19.898C12.9453 19.7112 13.0196 19.5322 13.1518 19.4001C13.2839 19.268 13.463 19.1938 13.6498 19.1936Z" fill="white"/>
<path d="M18.8482 8.26081C19.5593 8.26081 20.1358 7.68431 20.1358 6.97318C20.1358 6.26204 19.5593 5.68555 18.8482 5.68555C18.137 5.68555 17.5605 6.26204 17.5605 6.97318C17.5605 7.68431 18.137 8.26081 18.8482 8.26081Z" fill="#FF5200"/>
<path d="M18.8474 8.28017C18.5889 8.28025 18.3361 8.20366 18.1212 8.06009C17.9062 7.91653 17.7386 7.71244 17.6396 7.47363C17.5407 7.23482 17.5147 6.97202 17.5651 6.71847C17.6155 6.46492 17.7399 6.23201 17.9227 6.04919C18.1055 5.86637 18.3383 5.74186 18.5919 5.6914C18.8454 5.64094 19.1082 5.6668 19.3471 5.76571C19.5859 5.86462 19.79 6.03214 19.9337 6.24707C20.0773 6.46201 20.1539 6.71471 20.1539 6.97322C20.1535 7.31965 20.0158 7.65179 19.7708 7.8968C19.5259 8.1418 19.1938 8.27967 18.8474 8.28017ZM18.8474 5.70456C18.5963 5.70448 18.3509 5.77885 18.1422 5.91827C17.9334 6.05768 17.7707 6.25588 17.6746 6.48778C17.5785 6.71968 17.5534 6.97487 17.6023 7.22108C17.6513 7.46728 17.7721 7.69344 17.9496 7.87094C18.1271 8.04844 18.3533 8.16932 18.5995 8.21827C18.8457 8.26722 19.1009 8.24206 19.3328 8.14596C19.5647 8.04986 19.7629 7.88715 19.9023 7.6784C20.0417 7.46965 20.1161 7.22424 20.116 6.97322C20.1155 6.6369 19.9817 6.3145 19.7439 6.07669C19.5061 5.83888 19.1837 5.70506 18.8474 5.70456Z" fill="#FF5200"/>
<path d="M17.5835 2.59429C18.2946 2.59429 18.8711 2.0178 18.8711 1.30666C18.8711 0.595531 18.2946 0.019043 17.5835 0.019043C16.8724 0.019043 16.2959 0.595531 16.2959 1.30666C16.2959 2.0178 16.8724 2.59429 17.5835 2.59429Z" fill="#FF5200"/>
<path d="M17.5834 2.61367C17.325 2.6133 17.0724 2.53632 16.8578 2.39246C16.6431 2.24861 16.4758 2.04434 16.3772 1.80547C16.2786 1.5666 16.253 1.30385 16.3037 1.05044C16.3544 0.797029 16.479 0.564329 16.6619 0.381752C16.8448 0.199176 17.0777 0.0749179 17.3312 0.0246849C17.5847 -0.0255481 17.8474 0.000498526 18.0861 0.0995328C18.3248 0.198567 18.5288 0.366143 18.6723 0.58108C18.8158 0.796017 18.8923 1.04867 18.8922 1.30709C18.8918 1.65389 18.7537 1.98634 18.5083 2.23135C18.2629 2.47635 17.9302 2.61387 17.5834 2.61367ZM17.5834 0.0380501C17.3325 0.038425 17.0873 0.113171 16.8789 0.252843C16.6704 0.392515 16.5081 0.590844 16.4123 0.822764C16.3165 1.05468 16.2917 1.30979 16.3409 1.55583C16.39 1.80188 16.511 2.02782 16.6886 2.20511C16.8662 2.3824 17.0923 2.50308 17.3384 2.55189C17.5845 2.6007 17.8396 2.57546 18.0714 2.47935C18.3031 2.38325 18.5012 2.22059 18.6406 2.01194C18.7799 1.80329 18.8543 1.55801 18.8543 1.30709C18.854 0.970286 18.72 0.647388 18.4816 0.409407C18.2433 0.171426 17.9202 0.0378489 17.5834 0.0380501Z" fill="#EB6E08"/>
<path d="M13.8609 32.448C14.572 32.448 15.1485 31.8716 15.1485 31.1604C15.1485 30.4493 14.572 29.8728 13.8609 29.8728C13.1497 29.8728 12.5732 30.4493 12.5732 31.1604C12.5732 31.8716 13.1497 32.448 13.8609 32.448Z" fill="white"/>
<path d="M12.7593 26.805C13.4705 26.805 14.047 26.2285 14.047 25.5174C14.047 24.8062 13.4705 24.2297 12.7593 24.2297C12.0482 24.2297 11.4717 24.8062 11.4717 25.5174C11.4717 26.2285 12.0482 26.805 12.7593 26.805Z" fill="white"/>
<path d="M8.4752 28.8754C4.16834 26.3627 1.26664 21.685 1.26664 16.34C1.26664 8.34888 7.75253 1.84707 15.7243 1.84707C15.9795 1.84707 16.2335 1.85428 16.4853 1.86717V0.788463C16.2325 0.77633 15.9789 0.770264 15.7243 0.770264C11.5748 0.770264 7.67328 2.39003 4.73935 5.33078C1.80543 8.27153 0.189453 12.1814 0.189453 16.34C0.189453 20.4986 1.80543 24.4085 4.73935 27.3493C5.83911 28.4536 7.09843 29.3867 8.4752 30.1171V28.8754Z" fill="#FF5200"/>
<path d="M8.66491 30.4339L8.38661 30.2864C6.99307 29.5463 5.71843 28.6015 4.60526 27.4832C1.63569 24.5068 0 20.5496 0 16.3402C0 12.1307 1.63569 8.17384 4.60526 5.19706C7.57483 2.22029 11.5241 0.580811 15.7245 0.580811C15.9785 0.580811 16.2375 0.586877 16.4945 0.599389L16.675 0.60811V2.06711L16.4756 2.05687C16.2242 2.0436 15.9713 2.03678 15.7245 2.03678C7.85692 2.03678 1.45635 8.45328 1.45635 16.3402C1.45635 21.411 4.1825 26.1516 8.57088 28.7117L8.66491 28.7667V30.4339ZM15.7245 0.959969C11.6254 0.959969 7.77199 2.55964 4.8737 5.46513C1.97542 8.37062 0.379158 12.2324 0.379158 16.3402C0.379158 20.448 1.97542 24.312 4.8737 27.2156C5.88554 28.2314 7.03407 29.1012 8.28613 29.7999V28.9839C6.09013 27.6838 4.27056 25.8341 3.00652 23.6171C1.74248 21.4001 1.07756 18.8922 1.07719 16.3402C1.07719 8.24436 7.648 1.65762 15.7245 1.65762C15.914 1.65762 16.1036 1.66141 16.2958 1.669V0.970585C16.1048 0.963381 15.9133 0.959969 15.7245 0.959969Z" fill="#FF5200"/>
<path d="M31.2589 16.3406C31.2589 20.4992 29.6429 24.4091 26.709 27.3495C23.775 30.2898 19.8735 31.9104 15.7239 31.9104C15.1382 31.9104 14.5529 31.8778 13.9707 31.8129V30.7266C14.5524 30.7978 15.1379 30.8335 15.7239 30.8336C23.6958 30.8336 30.1817 24.3321 30.1817 16.341C30.1817 10.985 27.2682 6.29897 22.9469 3.79084V2.54834C24.334 3.28123 25.6023 4.2195 26.709 5.33136C29.6429 8.27363 31.2589 12.182 31.2589 16.3406Z" fill="white"/>
<path d="M26.8432 5.19763C25.7229 4.0724 24.4391 3.12277 23.0353 2.38087L22.7592 2.23413V3.89902L22.8537 3.95361C27.2561 6.51066 29.9921 11.257 29.9921 16.3407C29.9921 24.2276 23.5934 30.6441 15.7239 30.6441C15.1378 30.6441 14.5523 30.6077 13.9707 30.5353V30.9178C14.5525 30.988 15.1379 31.0232 15.7239 31.0233C23.8 31.0233 30.3713 24.4369 30.3713 16.3411C30.3711 13.784 29.7039 11.2712 28.4354 9.05094C27.1669 6.83066 25.3411 4.97972 23.1384 3.681V2.86657C24.4006 3.56746 25.558 4.44227 26.5766 5.46532C29.4749 8.37043 31.0712 12.2325 31.0712 16.3407C31.0712 20.4489 29.473 24.3122 26.5747 27.2157C23.6764 30.1193 19.823 31.7209 15.7239 31.7209C15.1381 31.7209 14.5528 31.6877 13.9707 31.6216V32.0034C14.5529 32.0679 15.1382 32.1001 15.7239 32.1001C19.9243 32.1001 23.8732 30.4606 26.8432 27.4838C29.8131 24.507 31.4484 20.5498 31.4484 16.3407C31.4484 12.1317 29.8116 8.17403 26.8432 5.19763Z" fill="white"/>
<path d="M45.7284 14.7392H43.7263V10.0683H38.2047V14.7392H36.2041V4.12329H38.2062V8.47772H43.7279V4.12329H45.73L45.7284 14.7392Z" fill="white"/>
<path d="M50.1879 5.20011C50.3798 4.75702 50.5996 4.44617 50.8474 4.26757C51.0952 4.08897 51.4567 4.00052 51.9318 4.00222C52.3868 4.00222 52.7432 4.09067 53.0009 4.26757C53.2585 4.44446 53.4835 4.75531 53.6757 5.20011L57.6794 14.7393H55.5715L54.4794 12.0567H49.3668L48.2901 14.7408H46.1816L50.1879 5.20011ZM49.8842 10.6297H53.9641L52.235 6.30751C52.2048 6.22673 52.1644 6.13266 52.1138 6.02683C52.0632 5.92099 52.0024 5.86731 51.9318 5.86731C51.8613 5.86731 51.8004 5.91844 51.7498 6.02683C51.6992 6.13521 51.6588 6.22673 51.6286 6.30751L49.8842 10.6297Z" fill="white"/>
<path d="M61.5468 5.12449C61.6173 4.97248 61.6932 4.8283 61.7743 4.69196C61.8565 4.55332 61.9646 4.43181 62.0928 4.33408C62.235 4.22757 62.3939 4.14566 62.5632 4.09174C62.7844 4.02546 63.0148 3.99474 63.2457 4.00074C63.7205 4.00074 64.0794 4.09174 64.3224 4.27375C64.5655 4.45576 64.7727 4.73883 64.9441 5.12296L68.5081 13.1457H69.4029V14.7378H57.0732V13.1472H57.968L61.5468 5.12449ZM60.013 13.1472H66.4585L63.4881 6.26205C63.4676 6.21093 63.4369 6.14293 63.397 6.05755C63.3572 5.97217 63.306 5.92871 63.2437 5.92871C63.1813 5.92871 63.1297 5.97165 63.0842 6.05755C63.0387 6.14344 63.0059 6.21093 62.9855 6.26205L60.013 13.1472Z" fill="white"/>
<path d="M71.7676 14.7391C71.5498 14.7401 71.332 14.7275 71.1158 14.7013C70.9001 14.6698 70.7016 14.5655 70.5534 14.4057C70.3792 14.2483 70.262 14.0376 70.22 13.8065C70.1807 13.5939 70.1603 13.3781 70.1592 13.1618V5.63967C70.1586 5.43117 70.1919 5.22396 70.2579 5.02615C70.3138 4.84634 70.4039 4.67901 70.5232 4.5333C70.681 4.34932 70.8979 4.22603 71.1367 4.18462C71.3547 4.14593 71.5754 4.12557 71.7968 4.12378H78.6058V5.71687H72.875C72.781 5.71719 72.6872 5.72471 72.5943 5.73936C72.4954 5.75605 72.4033 5.80076 72.329 5.8682C72.2546 5.93658 72.2037 6.0268 72.1838 6.12588C72.1692 6.21032 72.1617 6.29582 72.1613 6.38151V8.5196H78.455V10.1137H72.1613V12.601C72.1613 12.7932 72.2124 12.9297 72.3147 13.01C72.3881 13.0762 72.4814 13.1161 72.58 13.1235C72.7185 13.1401 72.8578 13.1478 72.9972 13.1465H78.6692V14.7386L71.7676 14.7391Z" fill="white"/>
<path d="M83.142 10.2672C83.2747 10.1302 83.3964 9.98304 83.506 9.82703C83.6306 9.66568 83.6998 9.46845 83.7034 9.26464C83.7054 9.10956 83.6576 8.95792 83.5669 8.83211C83.4755 8.70495 83.3741 8.58528 83.2637 8.47422L79.3658 4.12183H81.7923L85.1288 8.06879C85.2618 8.23084 85.3815 8.40335 85.4867 8.58466C85.6126 8.79533 85.6783 9.03658 85.6764 9.28202C85.6764 9.36331 85.6411 9.52743 85.57 9.77539C85.499 10.0234 85.3021 10.3286 84.979 10.6926L81.3695 14.7418H78.8213L83.142 10.2672ZM86.2209 4.12489H88.223V14.7393H86.2209V4.12489ZM93.0759 14.7408L89.4664 10.6916C89.3018 10.4995 89.1498 10.2969 89.0114 10.0852C88.851 9.84785 88.7663 9.56745 88.7685 9.281C88.766 9.03788 88.8317 8.79892 88.9582 8.5913C89.0673 8.41003 89.1868 8.23523 89.3161 8.06777L92.6526 4.12489H95.0791L91.1802 8.4778C91.0696 8.58872 90.9682 8.70841 90.877 8.83569C90.7863 8.9615 90.7384 9.11314 90.7405 9.26822C90.7439 9.47198 90.8129 9.66921 90.9373 9.83061C91.047 9.98662 91.1687 10.1338 91.3013 10.2708L95.6236 14.7444L93.0759 14.7408Z" fill="white"/>
<path d="M99.642 5.12449C99.7105 4.97654 99.7864 4.83217 99.8695 4.69196C99.9516 4.5532 100.06 4.43167 100.188 4.33408C100.33 4.22747 100.489 4.14555 100.658 4.09174C100.879 4.02546 101.11 3.99474 101.34 4.00074C101.815 4.00074 102.174 4.09174 102.417 4.27375C102.66 4.45576 102.867 4.73883 103.039 5.12296L106.603 13.1457H107.498V14.7378H95.168V13.1472H96.0627L99.642 5.12449ZM98.1082 13.1472H104.554L101.581 6.26205C101.561 6.21093 101.53 6.14293 101.49 6.05755C101.45 5.97217 101.399 5.92871 101.337 5.92871C101.274 5.92871 101.223 5.97165 101.178 6.05755C101.141 6.12396 101.109 6.19222 101.079 6.26205L98.1082 13.1472Z" fill="white"/>
<path d="M110.896 5.20011C111.088 4.75702 111.308 4.44617 111.555 4.26757C111.803 4.08897 112.165 4.00052 112.64 4.00222C113.095 4.00222 113.451 4.09067 113.709 4.26757C113.966 4.44446 114.191 4.75531 114.384 5.20011L118.388 14.7393H116.279L115.188 12.0567H110.075L108.999 14.7408H106.891L110.896 5.20011ZM110.593 10.6297H114.671L112.941 6.30751C112.911 6.22673 112.871 6.13266 112.82 6.02683C112.77 5.92099 112.709 5.86731 112.638 5.86731C112.568 5.86731 112.507 5.91844 112.456 6.02683C112.406 6.13521 112.365 6.22673 112.335 6.30751L110.593 10.6297Z" fill="white"/>
<path d="M53.7473 22.6074C53.7489 22.4654 53.7615 22.3237 53.7851 22.1836C53.812 22.0184 53.8885 21.8652 54.0044 21.7444C54.1597 21.5615 54.3793 21.4451 54.6179 21.4193C54.8217 21.3961 55.0264 21.3835 55.2314 21.3814H58.0618C58.4627 21.3794 58.8629 21.4148 59.2571 21.4873C59.6321 21.5578 59.9802 21.7395 60.3016 22.0323C60.5334 22.2517 60.7208 22.5136 60.8538 22.8038C61.0103 23.1269 61.0885 23.5659 61.0885 24.1208V29.4026H59.317V24.6504C59.3175 24.3936 59.2971 24.1371 59.2561 23.8836C59.2196 23.6453 59.1261 23.4194 58.9836 23.225C58.8579 23.0576 58.6874 22.9291 58.4918 22.8544C58.2954 22.7787 58.0352 22.7409 57.7126 22.7409H55.9114C55.8602 22.7408 55.809 22.7434 55.758 22.7485C55.6987 22.7575 55.6444 22.787 55.6047 22.8319C55.5576 22.8753 55.528 22.9344 55.5213 22.998C55.5162 23.0589 55.5137 23.1141 55.5137 23.1647V29.4021H53.7432L53.7473 22.6074Z" fill="#FF5200"/>
<path d="M65.1116 29.4027C64.9095 29.4027 64.6977 29.3952 64.4761 29.3803C64.2546 29.3651 64.0359 29.3218 63.8253 29.2514C63.6052 29.1769 63.3963 29.0725 63.2046 28.9411C62.9902 28.7925 62.8054 28.6052 62.6596 28.3889C62.3905 27.9862 62.2242 27.5236 62.1755 27.0417C62.1147 26.5192 62.0844 25.9936 62.085 25.4676C62.085 25.095 62.0925 24.7445 62.1075 24.4159C62.1196 24.1102 62.1601 23.8062 62.2286 23.5079C62.2896 23.2406 62.3862 22.9826 62.516 22.741C62.6501 22.4992 62.8271 22.2839 63.0385 22.1055C63.2551 21.9169 63.5035 21.7682 63.7721 21.6664C64.0343 21.5671 64.3055 21.4936 64.5819 21.447C64.8422 21.4029 65.105 21.3751 65.3688 21.3637C65.621 21.3538 65.8425 21.3489 66.0334 21.3489C66.5012 21.3485 66.9687 21.3762 67.4332 21.4317C67.8761 21.4817 68.3025 21.6291 68.6817 21.8632C68.8989 22.0011 69.0909 22.1752 69.2492 22.378C69.3952 22.5693 69.5125 22.7808 69.5974 23.0059C69.6836 23.2351 69.7421 23.4739 69.7717 23.717C69.8019 23.9657 69.8169 24.216 69.8167 24.4665C69.8159 24.6772 69.7957 24.8874 69.7564 25.0944C69.7133 25.3169 69.6022 25.5205 69.4384 25.6772C69.3285 25.7919 69.1902 25.8753 69.0375 25.919C68.8877 25.9602 68.7328 25.9806 68.5774 25.9799H63.9163C63.9163 26.1503 63.9263 26.3471 63.9465 26.5704C63.9589 26.7435 63.9842 26.9154 64.0221 27.0847C64.0686 27.2707 64.1559 27.4439 64.2777 27.5919C64.3858 27.7159 64.5203 27.8141 64.6714 27.8792C64.8232 27.945 64.9837 27.9884 65.1479 28.008C65.3111 28.0279 65.4753 28.0379 65.6397 28.0382H69.5595V29.4002L65.1116 29.4027ZM67.5938 24.6204C67.765 24.6204 67.8739 24.5693 67.9189 24.467C67.9642 24.3672 67.9876 24.2587 67.9874 24.149C67.9936 23.9218 67.9387 23.697 67.8284 23.4982C67.7374 23.3353 67.6159 23.1914 67.4705 23.0744C67.258 22.9072 67.0044 22.8 66.7364 22.764C66.4781 22.73 66.2178 22.7129 65.9572 22.7129C65.8362 22.7129 65.705 22.7155 65.5636 22.7206C65.4162 22.7259 65.2695 22.743 65.1249 22.7717C64.9692 22.8034 64.8188 22.857 64.6781 22.9307C64.5274 23.01 64.3918 23.1151 64.2772 23.2411C64.1079 23.4169 63.9992 23.6422 63.9669 23.8842C63.942 24.1112 63.925 24.3559 63.9158 24.6184L67.5938 24.6204Z" fill="#FF5200"/>
<path d="M74.2692 29.4027C73.7239 29.4027 73.2926 29.3548 72.9752 29.2591C72.6642 29.1667 72.374 29.0151 72.1204 28.8127C71.8597 28.6031 71.6543 28.3328 71.5222 28.0254C71.3859 27.7128 71.3177 27.2992 71.3177 26.7846V22.742H70.2129V21.3815H71.3162V18.8083H73.0867V21.3815H75.3265V22.742H73.0867V26.4231C73.0868 26.5752 73.0995 26.7271 73.1245 26.8771C73.1504 27.0313 73.1963 27.1816 73.261 27.3239C73.3265 27.4704 73.428 27.5979 73.556 27.6946C73.7589 27.8669 74.0099 27.9726 74.2749 27.9973C74.4935 28.0237 74.7132 28.0388 74.9334 28.0428H75.372V29.4048L74.2692 29.4027Z" fill="#FF5200"/>
<path d="M76.2812 18.8083H78.0519V29.4027H76.2812V18.8083Z" fill="#FF5200"/>
<path d="M86.6187 28.5193C86.5748 28.7521 86.4453 28.9601 86.2556 29.1021C86.0847 29.2426 85.8771 29.3313 85.6575 29.3578C85.4392 29.3877 85.2192 29.4029 84.999 29.4033H82.1691C81.7692 29.4106 81.37 29.3673 80.9809 29.2744C80.6483 29.1866 80.3402 29.0236 80.0806 28.7979C79.7623 28.5291 79.5328 28.1704 79.4221 27.7688C79.3113 27.3345 79.2578 26.8876 79.263 26.4395V21.3816H81.0341V26.1164C81.0283 26.403 81.0511 26.6896 81.1021 26.9717C81.1396 27.1705 81.2197 27.3589 81.3367 27.5239C81.4784 27.7325 81.6907 27.883 81.9344 27.9477C82.2096 28.0128 82.4917 28.0434 82.7744 28.0387H84.2423C84.4744 28.0387 84.646 27.9832 84.7571 27.872C84.8283 27.809 84.8762 27.7238 84.8931 27.6302C84.9033 27.5498 84.9084 27.4689 84.9085 27.3879V21.3816H86.679V27.9651C86.6746 28.1512 86.6544 28.3366 86.6187 28.5193Z" fill="#FF5200"/>
<path d="M93.0361 29.4028L91.0079 26.4375L88.9951 29.4028H86.9219L89.9941 25.2861L87.1187 21.3816H89.1162L91.0079 24.1358L92.8996 21.3816H94.8971L92.0366 25.2861L95.1093 29.4028H93.0361Z" fill="#FF5200"/>
<path d="M122.603 18.7911C123.562 18.7911 124.34 18.0138 124.34 17.0548C124.34 16.0959 123.562 15.3186 122.603 15.3186C121.645 15.3186 120.867 16.0959 120.867 17.0548C120.867 18.0138 121.645 18.7911 122.603 18.7911Z" fill="white"/>
<path d="M122.37 16.4414H30.1377V17.6684H122.37V16.4414Z" fill="white"/>
</g>
<defs>
<clipPath id="clip0">
<rect width="125" height="32" fill="white"/>
</clipPath>
</defs>
</svg>
