<?xml version="1.0" encoding="utf-8"?><svg viewBox="0 0 56 56" xmlns="http://www.w3.org/2000/svg" xmlns:xlink="http://www.w3.org/1999/xlink"><style>:root>svg{display:none}:root>svg:target{display:block}</style><svg viewBox="0 0 24 24" id="arrow-down" xmlns="http://www.w3.org/2000/svg"><path d="M6 9l6 6 6-6"/></svg><svg viewBox="0 0 56 56" id="badge" xmlns="http://www.w3.org/2000/svg"><path d="M38.321 13.508a17.892 17.892 0 00-3.448-1.924l-1.376 3.282c.972.41 1.897.925 2.757 1.537l2.067-2.895zM43.551 19.347a17.778 17.778 0 00-2.29-3.203l-2.652 2.373a14.41 14.41 0 011.835 2.572l3.107-1.742z"/><path d="M41.663 23.986c2.205 7.534-2.115 15.43-9.649 17.635-7.534 2.205-15.43-2.115-17.635-9.649-2.205-7.534 2.115-15.43 9.649-17.635 2.093-.613 4.3-.736 6.447-.359l.614-3.507A18.226 18.226 0 0028 10.206c-9.817.012-17.765 7.98-17.752 17.798.013 9.817 7.981 17.765 17.798 17.752 9.817-.013 17.765-7.981 17.752-17.798a17.777 17.777 0 00-.715-4.969l-3.42.997z"/><path d="M56 28l-4.559-6.282.81-7.719-7.09-3.16-3.16-7.09-7.72.81L28 0l-6.282 4.559L14 3.749l-3.16 7.09-7.09 3.16.81 7.72L0 28l4.559 6.282L3.749 42l7.09 3.16 3.16 7.09 7.72-.81L28 56l6.282-4.559 7.719.81 3.16-7.09 7.09-3.16-.81-7.72L56 28zM42.464 42.464l-2.67 5.977-6.498-.689L28 51.605l-5.296-3.853-6.506.682-2.669-5.978-5.977-2.669.696-6.491L4.395 28l3.853-5.296-.689-6.506 5.977-2.669 2.67-5.977 6.505.682L28 4.395l5.296 3.853 6.505-.682 2.67 5.978 5.977 2.669-.696 6.491L51.605 28l-3.853 5.296.682 6.505-5.97 2.663z"/><path d="M20.36 26.742l-2.515 2.516 6.596 6.596L36.376 23.92l-2.516-2.517-9.419 9.42-4.08-4.081z"/></svg><svg viewBox="0 0 56 56" id="best-seller" xmlns="http://www.w3.org/2000/svg"><g clip-path="url(#cclip0)"><path d="M49.282 23.582a1.332 1.332 0 010-1.247l.69-1.302a4.642 4.642 0 00-1.34-5.873l-1.187-.874a1.33 1.33 0 01-.54-1.123l.056-1.472a4.643 4.643 0 00-3.756-4.71l-1.448-.273a1.33 1.33 0 01-.974-.777l-.589-1.35a4.642 4.642 0 00-5.427-2.615l-1.423.383c-.427.114-.88.01-1.215-.278l-1.116-.961a4.643 4.643 0 00-6.024 0l-1.117.961a1.331 1.331 0 01-1.215.278l-1.422-.383a4.643 4.643 0 00-5.428 2.614l-.588 1.351a1.33 1.33 0 01-.975.777l-1.448.273a4.643 4.643 0 00-3.756 4.71l.056 1.472a1.33 1.33 0 01-.54 1.123l-1.186.874a4.643 4.643 0 00-1.34 5.873l.689 1.302c.206.39.206.857 0 1.247l-.69 1.302a4.643 4.643 0 001.34 5.873l1.187.874c.355.262.557.682.54 1.123l-.056 1.472a4.643 4.643 0 003.756 4.71l.76.144-5.231 9.452a1.641 1.641 0 001.542 2.432l4.803-.31 2.141 4.42c.268.553.822.91 1.436.926h.042c.598 0 1.15-.325 1.438-.852l5.549-10.113a4.618 4.618 0 002.724.882 4.62 4.62 0 002.688-.855l5.533 10.086a1.641 1.641 0 002.916-.073l2.142-4.42 4.803.309a1.64 1.64 0 001.542-2.432l-5.226-9.444.807-.152a4.643 4.643 0 003.756-4.71l-.056-1.472a1.33 1.33 0 01.54-1.123l1.186-.874a4.642 4.642 0 001.34-5.873l-.688-1.302zm-30.903 27.2l-1.236-2.552a1.641 1.641 0 00-1.583-.923l-2.91.188 3.273-5.914c.976 1.92 3.21 2.934 5.311 2.37l1.047-.282-3.902 7.113zm24.92-3.287l-2.91-.188a1.642 1.642 0 00-1.583.923l-1.237 2.552-3.91-7.129 1.107.298c.392.105.788.155 1.18.155a4.657 4.657 0 004.107-2.476l3.246 5.865zm3.083-22.378l.689 1.302a1.34 1.34 0 01-.387 1.696l-1.186.874a4.61 4.61 0 00-1.873 3.89l.056 1.472a1.34 1.34 0 01-1.084 1.36l-1.448.273a4.609 4.609 0 00-2.176 1.056 4.61 4.61 0 00-1.2 1.635l-.588 1.351a1.34 1.34 0 01-1.567.755l-1.423-.383c-3.044-.818-4.844 1.64-5.325 1.923a1.34 1.34 0 01-1.739 0l-1.116-.962a4.611 4.611 0 00-4.21-.96l-1.422.382a1.34 1.34 0 01-1.567-.755l-.588-1.35a4.624 4.624 0 00-3.376-2.693l-1.447-.272a1.34 1.34 0 01-1.085-1.36l.056-1.472a4.61 4.61 0 00-1.873-3.89l-1.186-.874a1.34 1.34 0 01-.387-1.696l.69-1.302a4.61 4.61 0 000-4.317l-.69-1.302a1.34 1.34 0 01.387-1.696l1.186-.874a4.61 4.61 0 001.873-3.89l-.056-1.472a1.34 1.34 0 011.085-1.36l1.447-.273a4.61 4.61 0 003.376-2.691l.588-1.351a1.34 1.34 0 011.567-.755l1.423.383a4.61 4.61 0 004.209-.961l1.116-.962a1.34 1.34 0 011.739 0l1.116.962a4.61 4.61 0 004.21.96l1.422-.382a1.34 1.34 0 011.567.755l.588 1.35a4.61 4.61 0 003.376 2.693l1.448.273a1.34 1.34 0 011.084 1.36l-.056 1.472a4.61 4.61 0 001.873 3.89l1.186.873a1.34 1.34 0 01.387 1.696l-.69 1.302a4.61 4.61 0 000 4.317zM34.48 19.306l-3.46-.503-1.548-3.135a1.641 1.641 0 00-2.943 0l-1.548 3.135-3.46.503a1.641 1.641 0 00-.91 2.8l2.504 2.44-.59 3.446a1.641 1.641 0 002.38 1.73L28 28.095l3.095 1.627a1.641 1.641 0 002.381-1.73l-.59-3.446 2.503-2.44a1.641 1.641 0 00-.91-2.8zm-4.504 3.492c-.386.377-.563.92-.472 1.452l.175 1.02-.915-.482a1.64 1.64 0 00-1.527 0l-.916.481.175-1.019a1.641 1.641 0 00-.472-1.452l-.74-.722 1.023-.149a1.641 1.641 0 001.236-.898l.457-.927.458.927c.239.485.701.82 1.236.898l1.023.149-.74.722zM28 8.188c-8.144 0-14.77 6.626-14.77 14.77 0 8.145 6.626 14.77 14.77 14.77 8.145 0 14.77-6.625 14.77-14.77 0-8.144-6.625-14.77-14.77-14.77zm0 26.259c-6.334 0-11.488-5.154-11.488-11.488 0-6.335 5.154-11.488 11.488-11.488 6.335 0 11.488 5.153 11.488 11.488 0 6.334-5.153 11.488-11.488 11.488z"/></g><defs><clipPath id="cclip0"><path d="M0 0h56v56H0z"/></clipPath></defs></svg><svg viewBox="0 0 20 14" id="burger" xmlns="http://www.w3.org/2000/svg"><path d="M1 13h18M1 7h18M1 1h18"/></svg><svg viewBox="0 0 32 32" id="cards" xmlns="http://www.w3.org/2000/svg"><g clip-path="url(#eclip0)"><path d="M30.78 5.919L11.18 1.77A1.545 1.545 0 009.355 2.96l-.373 2.393 22.614 4.785.372-2.393A1.545 1.545 0 0030.78 5.92zM22.537 10.645a1.56 1.56 0 00-1.915-1.083l-3.72 1.033L8.13 8.74l-.965 4.558-6.027 1.672a1.56 1.56 0 00-1.083 1.915l3.397 12.239a1.56 1.56 0 001.914 1.083l19.483-5.407a1.56 1.56 0 001.083-1.914l-.583-2.102 2.185.462c.83.176 1.651-.359 1.827-1.188l1.382-6.533-7.87-1.665-.337-1.214zm2.25 6.221l.481-2.277a.636.636 0 01.752-.49l2.277.483c.341.072.561.41.49.751l-.483 2.278a.636.636 0 01-.751.488l-2.277-.481a.636.636 0 01-.49-.752zm-23.309-.675l5.392-1.496 12.722-3.53 1.368-.38a.294.294 0 01.354.2l.16.578.505 1.815-20.037 5.56-.664-2.393a.292.292 0 01.2-.354zm23.233 7.032a.282.282 0 01-.028.218.28.28 0 01-.172.136L5.03 28.984a.294.294 0 01-.354-.2l-1.981-7.14 20.036-5.56 1.222 4.404.76 2.735z"/><path d="M8.176 23.712a.636.636 0 00-.78-.442l-2.275.632a.636.636 0 00-.442.78l.632 2.275a.636.636 0 00.78.442l2.276-.632a.636.636 0 00.441-.78l-.632-2.275z"/></g><defs><clipPath id="eclip0"><path d="M0 0h32v32H0z"/></clipPath></defs></svg><svg viewBox="0 0 24 24" id="close" xmlns="http://www.w3.org/2000/svg"><path d="M18 6L6 18M6 6l12 12"/></svg><svg viewBox="0 0 56 56" id="customer-service" xmlns="http://www.w3.org/2000/svg"><g clip-path="url(#gclip0)"><path d="M45.446 48.774l-2.09-6.274a6.323 6.323 0 00-4.868-4.22l-6.036-1.099v-.468a9.09 9.09 0 002.692-2.39h1.824a2.713 2.713 0 002.71-2.71V20.774c0-6.474-5.268-11.742-11.743-11.742-6.474 0-11.742 5.268-11.742 11.742v6.323a3.619 3.619 0 002.88 3.538 9.05 9.05 0 004.346 6.078v.468l-6.037 1.099a6.321 6.321 0 00-4.867 4.22l-.36 1.085-3.077-3.076a.905.905 0 010-1.278l3.568-3.567-6.697-6.697L1.917 33A6.282 6.282 0 00.065 37.47a6.28 6.28 0 001.852 4.47l12.207 12.208A6.283 6.283 0 0018.595 56a6.254 6.254 0 004.442-1.825l4.4-4.031-1.372-1.37h19.381zm-7.575-17.161a.904.904 0 01-.903.903h-.76c.262-.597.46-1.226.589-1.881a3.58 3.58 0 001.074-.428v1.406zm-.903-2.96V25.54a1.8 1.8 0 01.903 1.556 1.8 1.8 0 01-.903 1.555zm-18.065 0A1.8 1.8 0 0118 27.096a1.8 1.8 0 01.903-1.556v3.111zm0-6.072v1.031c-.321.084-.623.21-.903.374v-3.212c0-5.478 4.457-9.935 9.935-9.935 5.478 0 9.936 4.457 9.936 9.935v3.212a3.549 3.549 0 00-.903-.374v-1.031h-.904a9.938 9.938 0 01-7.071-2.93l-1.058-1.057-1.057 1.057a9.938 9.938 0 01-7.072 2.93h-.903zm1.807 6.322v-4.55a11.71 11.71 0 007.225-3.21 11.705 11.705 0 007.226 3.21v4.55c0 1.317-.36 2.55-.977 3.613h-6.249v1.806H32.7a7.187 7.187 0 01-4.764 1.807c-3.984 0-7.225-3.242-7.225-7.226zm9.935 8.616v.043l-2.71 2.71-2.71-2.71v-.043a9.02 9.02 0 005.42 0zm-16.417 5.552a4.518 4.518 0 013.476-3.016l6.314-1.147 3.917 3.917 3.917-3.916 6.312 1.147a4.516 4.516 0 013.477 3.016l1.3 3.896H24.258L20.74 43.45l-3.909 3.536a.923.923 0 01-1.277 0l-1.973-1.973.647-1.942zm-8.28-11.55l4.142 4.143-.98.98-4.143-4.141.981-.981zm15.838 21.351a4.493 4.493 0 01-3.193 1.322c-1.206 0-2.34-.471-3.194-1.324L3.192 40.664a4.487 4.487 0 01-1.322-3.193c0-1.206.47-2.341 1.322-3.194l.497-.496 4.142 4.142-.032.032a2.714 2.714 0 000 3.833l6.477 6.477a2.695 2.695 0 001.916.794 2.66 2.66 0 001.884-.763l.067-.06 4.162 4.161-.519.475zm1.852-1.698l-4.152-4.152 1.193-1.078 4.145 4.144-1.186 1.086zM53.226 0H40.58a2.713 2.713 0 00-2.71 2.71v7.225a2.713 2.713 0 002.71 2.71h2.412l-.934 5.448 8.717-5.448h2.45a2.713 2.713 0 002.71-2.71V2.71A2.713 2.713 0 0053.226 0zm.903 9.935a.905.905 0 01-.903.904h-2.969l-5.736 3.585.615-3.585H40.58a.905.905 0 01-.904-.904V2.71c0-.498.406-.904.904-.904h12.645c.498 0 .903.406.903.904v7.225z"/><path d="M52.323 3.613H41.484v1.806h10.84V3.613zM48.71 7.226h-7.226v1.806h7.226V7.226zM52.323 7.226h-1.806v1.806h1.806V7.226zM27.935 2.71c-11.801 0-21.967 8.163-24.61 19.55l-1.712-2.853-1.549.93 3.175 5.29 5.29-3.175-.929-1.55-2.448 1.47C7.712 11.953 17.08 4.515 27.935 4.515c2.373 0 4.714.352 6.959 1.048l.535-1.725a25.275 25.275 0 00-7.494-1.13zM55.497 20l-5.29-3.176-3.175 5.291 1.55.93 1.58-2.635A23.39 23.39 0 0151.42 28c0 5.371-1.86 10.623-5.237 14.786l1.402 1.138A25.347 25.347 0 0053.226 28c0-2.763-.445-5.461-1.313-8.044l2.654 1.592.93-1.549z"/></g><defs><clipPath id="gclip0"><path d="M0 0h56v56H0z"/></clipPath></defs></svg><svg viewBox="0 0 24 25" id="help" xmlns="http://www.w3.org/2000/svg"><path d="M19.848 6.814a.47.47 0 00-.138.651c.985 1.514 1.482 3.327 1.44 5.244a.47.47 0 00.46.481h.01a.47.47 0 00.47-.46c.048-2.107-.503-4.105-1.591-5.778a.47.47 0 00-.651-.138z"/><path d="M20.487 20.983A11.922 11.922 0 0024 12.5a11.921 11.921 0 00-3.515-8.486l-.002-.001A11.921 11.921 0 0012 .5a11.921 11.921 0 00-8.483 3.513h-.001v.001h-.001A11.921 11.921 0 000 12.5c0 3.204 1.248 6.217 3.513 8.483v.001h.001v.001A11.921 11.921 0 0012 24.5a11.921 11.921 0 008.486-3.515l.001-.002zm-.345-1.008l-3.411-3.412a6.212 6.212 0 001.508-4.063c0-1.552-.57-2.973-1.51-4.065l3.412-3.412a11.016 11.016 0 012.918 7.477c0 2.88-1.107 5.505-2.917 7.475zM6.702 12.5A5.304 5.304 0 0112 7.202a5.304 5.304 0 015.298 5.298A5.304 5.304 0 0112 17.798 5.304 5.304 0 016.702 12.5zm12.773-8.142l-3.412 3.411A6.212 6.212 0 0012 6.261c-1.55 0-2.97.569-4.063 1.508L4.525 4.358A11.016 11.016 0 0112 1.44c2.88 0 5.505 1.107 7.475 2.917zm-15.616.665l3.412 3.412a6.212 6.212 0 00-1.51 4.065c0 1.55.569 2.97 1.508 4.063l-3.411 3.412A11.017 11.017 0 01.94 12.5c0-2.88 1.108-5.507 2.918-7.477zm.664 15.618l3.412-3.412A6.212 6.212 0 0012 18.739c1.552 0 2.973-.57 4.065-1.51l3.412 3.412A11.017 11.017 0 0112 23.559c-2.88 0-5.507-1.108-7.477-2.918z"/><path d="M21.917 14.155c-.115-.303-.545-.388-.767-.152a.472.472 0 00.333.803c.323.009.568-.354.434-.65z"/></svg><svg viewBox="0 0 24 24" id="internet" xmlns="http://www.w3.org/2000/svg"><path d="M12 24a1.056 1.056 0 01-1.053-1.11l-5.903-2.445a1.056 1.056 0 11-.784-1.76 1.056 1.056 0 011.054 1.11l5.902 2.445a1.052 1.052 0 011.568 0l5.902-2.445a1.056 1.056 0 011.053-1.11 1.056 1.056 0 010 2.11c-.31 0-.59-.136-.783-.35l-5.903 2.445.002.055c0 .582-.473 1.055-1.055 1.055zm0-1.406a.352.352 0 100 .704.352.352 0 000-.704zm7.74-3.206a.352.352 0 100 .704.352.352 0 000-.704zm-15.48 0a.352.352 0 10.001.704.352.352 0 000-.704zm7.74.393c-4.29 0-7.781-3.49-7.781-7.781 0-4.29 3.49-7.781 7.781-7.781a7.75 7.75 0 014.261 1.27.352.352 0 01-.385.587 7.047 7.047 0 00-1.253-.652c.315.32.609.701.876 1.14.166.272.318.562.456.866h1.452a7.283 7.283 0 00-.562-.59.351.351 0 11.482-.512A7.812 7.812 0 0119.78 12c0 4.29-3.49 7.781-7.781 7.781zm.352-3.21v2.482c.95-.137 1.844-.829 2.546-1.982.098-.16.19-.328.278-.5h-2.824zm-3.528 0c.087.172.18.34.278.5.702 1.153 1.595 1.845 2.546 1.982V16.57H8.824zm7.13 0a8.05 8.05 0 01-.455.865 6.262 6.262 0 01-.873 1.137A7.114 7.114 0 0017.4 16.57h-1.446zm-9.355 0a7.113 7.113 0 002.775 2.002 6.26 6.26 0 01-.873-1.137 8.066 8.066 0 01-.456-.866H6.6zm9.64-.704h1.687a7.035 7.035 0 001.144-3.515h-2.2c-.034 1.251-.252 2.45-.632 3.515zm-3.887 0h3.136c.408-1.045.642-2.249.679-3.515h-3.815v3.515zm-3.84 0h3.136v-3.515H7.833c.037 1.266.271 2.47.679 3.515zm-2.438 0h1.688c-.38-1.064-.598-2.264-.632-3.515h-2.2a7.035 7.035 0 001.144 3.515zm10.796-4.219h2.2a6.992 6.992 0 00-1.137-3.515h-1.695c.38 1.064.598 2.264.632 3.515zm-4.518 0h3.815c-.037-1.266-.271-2.47-.679-3.515h-3.136v.82a.352.352 0 11-.704 0v-.82H8.512c-.408 1.045-.642 2.249-.679 3.515h3.815V10.36a.352.352 0 11.704 0v1.29zm-7.421 0H7.13c.034-1.251.252-2.45.632-3.515H6.074a7.034 7.034 0 00-1.143 3.515zm7.42-4.218h2.825a7.18 7.18 0 00-.278-.5c-.702-1.154-1.595-1.846-2.546-1.983V7.43zm-3.527 0h2.824V4.947c-.95.137-1.844.829-2.546 1.982-.098.16-.19.328-.278.5zm-2.225 0h1.446c.138-.304.29-.594.456-.866.266-.437.56-.818.873-1.137A7.113 7.113 0 006.6 7.43zM20.497 18.26a.352.352 0 01-.325-.486l2.068-4.991a1.053 1.053 0 010-1.568l-2.445-5.902a1.056 1.056 0 01-1.11-1.053 1.056 1.056 0 012.11 0c0 .31-.136.59-.35.783l2.445 5.903A1.056 1.056 0 0124 12a1.056 1.056 0 01-1.11 1.053l-2.068 4.991a.352.352 0 01-.325.217zm2.448-6.613a.352.352 0 10.001.704.352.352 0 000-.704zM19.74 3.91a.352.352 0 10.001.704.352.352 0 000-.704zM3.503 18.26a.352.352 0 01-.325-.217l-2.068-4.99a1.056 1.056 0 11-.056-2.108h.056l2.445-5.902a1.056 1.056 0 111.489-1.489l5.903-2.445a1.056 1.056 0 112.108-.056c0 .02 0 .038-.002.056l4.998 2.07a.352.352 0 11-.27.65l-4.997-2.07a1.053 1.053 0 01-1.568 0L5.314 4.205l.001.055a1.056 1.056 0 01-1.11 1.054L1.76 11.216a1.052 1.052 0 010 1.568l2.067 4.991a.351.351 0 01-.324.486zm-2.448-6.613a.352.352 0 100 .704.352.352 0 000-.704zM4.26 3.91a.352.352 0 100 .704.352.352 0 000-.704zM12 .703a.352.352 0 100 .704.352.352 0 000-.704z"/></svg><svg viewBox="0 0 22 23" id="like" xmlns="http://www.w3.org/2000/svg"><path d="M6 21.924H3a2 2 0 01-2-2v-7a2 2 0 012-2h3m7-2v-4a3 3 0 00-3-3l-4 9v11h11.28a2 2 0 002-1.7l1.38-9a2 2 0 00-2-2.3H13z"/></svg><svg viewBox="0 0 16 16" id="log-in" xmlns="http://www.w3.org/2000/svg"><path d="M9.333 14.667h3.333c.737 0 1.334-.597 1.334-1.334V2.667c0-.737-.597-1.334-1.334-1.334H9.333"/><path d="M7.333 10.667L10 8 7.333 5.333M10 8H2"/></svg><svg viewBox="0 0 24 24" id="news" xmlns="http://www.w3.org/2000/svg"><path d="M9.986 19.29a2.543 2.543 0 003.532.416c.161-.12.306-.26.431-.416m-8.948-5.818v-.18c.026-.534.197-1.051.495-1.498a4.011 4.011 0 00.983-1.906c0-.548 0-1.105.048-1.654.247-2.642 2.86-4.47 5.441-4.47h.064c2.58 0 5.193 1.828 5.449 4.47.048.549 0 1.106.04 1.654a4.08 4.08 0 00.983 1.914c.3.443.471.958.495 1.49v.172a2.937 2.937 0 01-.695 1.968 3.71 3.71 0 01-2.349 1.13 37.121 37.121 0 01-7.918 0 3.75 3.75 0 01-2.35-1.13 2.968 2.968 0 01-.686-1.96z"/></svg><svg viewBox="0 0 22 23" id="phone" xmlns="http://www.w3.org/2000/svg"><path d="M21 16.576v3.079c0 .286-.056.569-.168.83a2.053 2.053 0 01-.48.69c-.206.194-.448.341-.712.433a1.952 1.952 0 01-.82.1 19.467 19.467 0 01-8.63-3.151 19.764 19.764 0 01-6-6.158A20.658 20.658 0 011.12 3.5c-.026-.284.007-.57.096-.84s.231-.518.418-.729c.187-.21.415-.379.67-.494.253-.115.528-.174.805-.175h3a1.97 1.97 0 011.324.497c.368.324.608.775.676 1.269.127.985.362 1.952.7 2.883.135.368.164.767.084 1.15a2.07 2.07 0 01-.534 1.016L7.09 9.381a16.217 16.217 0 006 6.158l1.27-1.303c.272-.276.616-.466.99-.548a1.951 1.951 0 011.12.086c.908.348 1.85.589 2.81.719.486.07.93.32 1.247.705.317.384.486.875.473 1.378z"/></svg><svg viewBox="0 0 27 24" id="remote-control" xmlns="http://www.w3.org/2000/svg"><path d="M8.625 24h6.75a1.877 1.877 0 001.874-1.875V1.875A1.877 1.877 0 0015.374 0H8.625A1.877 1.877 0 006.75 1.875v20.25c0 1.034.841 1.875 1.875 1.875zm6.75-.75h-6.75c-.62 0-1.125-.505-1.125-1.125v-.01c.314.238.701.385 1.125.385h6.75c.423 0 .81-.147 1.124-.385v.01c0 .62-.504 1.125-1.125 1.125zM7.5 1.875c0-.62.505-1.125 1.125-1.125h6.75c.62 0 1.124.505 1.124 1.125v18.75c0 .62-.504 1.125-1.125 1.125H8.625c-.62 0-1.125-.505-1.125-1.125V1.875z"/><path d="M14.628 3.75c.62 0 1.125-.505 1.125-1.125S15.248 1.5 14.628 1.5s-1.125.505-1.125 1.125.504 1.125 1.125 1.125zm0-1.5a.375.375 0 110 .75.375.375 0 010-.75zM9.376 17.627c0 .208.168.375.375.375h1.124v1.124c0 .207.168.375.375.375h1.501a.375.375 0 00.375-.375v-1.124h1.123a.375.375 0 00.375-.375v-1.501a.375.375 0 00-.375-.375h-1.123v-1.124a.375.375 0 00-.375-.375H11.25a.375.375 0 00-.375.375v1.124H9.75a.375.375 0 00-.375.375v1.501zm.75-1.126h1.124a.375.375 0 00.375-.375v-1.124h.751v1.124c0 .207.168.375.375.375h1.123v.751h-1.123a.375.375 0 00-.375.375v1.124h-.751v-1.124a.375.375 0 00-.375-.375h-1.124v-.751zM9.01 7.502a.375.375 0 100-.75h-.003a.373.373 0 00-.373.375c0 .207.17.375.377.375zM10.512 7.502a.375.375 0 100-.75h-.005a.373.373 0 00-.372.375c0 .207.17.375.377.375zM12.013 7.502a.375.375 0 100-.75h-.005a.373.373 0 00-.372.375c0 .207.17.375.377.375zM13.514 7.502a.375.375 0 100-.75h-.005a.373.373 0 00-.372.375c0 .207.17.375.377.375zM15.015 6.752h-.005a.373.373 0 00-.372.375.376.376 0 00.752 0 .375.375 0 00-.375-.375zM9.01 9.002a.375.375 0 100-.75h-.003a.373.373 0 00-.373.375c0 .207.17.375.377.375zM10.512 9.002a.375.375 0 100-.75h-.005a.373.373 0 00-.372.375c0 .207.17.375.377.375zM12.013 9.002a.375.375 0 100-.75h-.005a.373.373 0 00-.372.375c0 .207.17.375.377.375zM13.514 9.002a.375.375 0 100-.75h-.005a.373.373 0 00-.372.375c0 .207.17.375.377.375zM15.015 8.252h-.005a.373.373 0 00-.372.375.376.376 0 00.752 0 .375.375 0 00-.375-.375zM9.01 10.502a.375.375 0 100-.75h-.003a.373.373 0 00-.373.374c0 .208.17.376.377.376zM10.512 10.502a.375.375 0 100-.75h-.005a.373.373 0 00-.372.374c0 .208.17.376.377.376zM12.013 10.502a.375.375 0 100-.75h-.005a.373.373 0 00-.372.374c0 .208.17.376.377.376zM13.514 10.502a.375.375 0 100-.75h-.005a.373.373 0 00-.372.374c0 .208.17.376.377.376zM15.015 9.752h-.005a.373.373 0 00-.372.374.376.376 0 00.752 0 .375.375 0 00-.375-.374zM9.01 12.002a.375.375 0 100-.75h-.003a.373.373 0 00-.373.374c0 .208.17.376.377.376zM10.512 12.002a.375.375 0 100-.75h-.005a.373.373 0 00-.372.374c0 .208.17.376.377.376zM12.013 12.002a.375.375 0 100-.75h-.005a.373.373 0 00-.372.374c0 .208.17.376.377.376zM13.514 12.002a.375.375 0 100-.75h-.005a.373.373 0 00-.372.374c0 .208.17.376.377.376zM15.015 11.252h-.005a.373.373 0 00-.372.374.376.376 0 00.752 0 .375.375 0 00-.375-.374zM9.01 13.502a.375.375 0 100-.75h-.003a.373.373 0 00-.373.374c0 .208.17.376.377.376zM15.015 12.752h-.005a.373.373 0 00-.372.374.376.376 0 00.752 0 .375.375 0 00-.375-.374z"/></svg><svg viewBox="0 0 56 56" id="router" xmlns="http://www.w3.org/2000/svg"><g clip-path="url(#oclip0)"><path d="M52.987 36.526h-3.392l-.912-27.653a2.317 2.317 0 00-2.326-2.25 2.318 2.318 0 00-2.326 2.25l-.912 27.653h-5.948a.822.822 0 000 1.644h15.816c.755 0 1.37.615 1.37 1.37v6.824c0 .756-.615 1.37-1.37 1.37H18.482a.822.822 0 100 1.644h34.505A3.017 3.017 0 0056 46.364V39.54a3.017 3.017 0 00-3.014-3.014zm-7.313-27.6a.68.68 0 01.683-.66c.37 0 .67.29.683.66l.91 27.6h-3.186l.91-27.6z"/><path d="M15.194 47.734H3.014c-.756 0-1.37-.614-1.37-1.37V39.54c0-.755.614-1.37 1.37-1.37h30.869a.822.822 0 100-1.644H12.882L11.97 8.873a2.318 2.318 0 00-2.326-2.25 2.318 2.318 0 00-2.326 2.25l-.415 12.583a.822.822 0 101.643.054l.415-12.583a.68.68 0 01.683-.66c.37 0 .67.29.683.66l.91 27.6H8.051l.387-11.732a.822.822 0 10-1.643-.054l-.389 11.785H3.014A3.017 3.017 0 000 39.54v6.824a3.017 3.017 0 003.014 3.014h12.18a.822.822 0 100-1.644z"/><path d="M6.37 43.88a.822.822 0 000 1.644h2.626a.822.822 0 100-1.644H6.371zM15.195 43.88h-2.626a.822.822 0 000 1.644h2.626a.822.822 0 100-1.644zM18.766 43.88a.822.822 0 000 1.644h2.626a.822.822 0 100-1.644h-2.626zM24.965 43.88a.822.822 0 000 1.644h2.625a.822.822 0 100-1.644h-2.625zM43.546 45.524a.822.822 0 100-1.644h-2.625a.822.822 0 100 1.644h2.625zM49.66 45.524a.822.822 0 000-1.644h-2.626a.822.822 0 100 1.644h2.626zM17.938 20.14c5.549-5.549 14.577-5.549 20.125 0a.82.82 0 001.163 0 .822.822 0 000-1.162c-6.19-6.19-16.26-6.19-22.45 0a.822.822 0 001.162 1.162z"/><path d="M36.107 23.258a.822.822 0 000-1.163c-4.466-4.466-11.73-4.47-16.2-.014a.822.822 0 101.152 1.173c3.83-3.826 10.058-3.825 13.886.003.32.321.841.321 1.162 0z"/><path d="M32.468 26.557a.822.822 0 00.581-1.403A7.092 7.092 0 0028 23.063c-1.907 0-3.7.743-5.048 2.091a.822.822 0 101.162 1.163A5.46 5.46 0 0128 24.707a5.46 5.46 0 013.886 1.61c.16.16.371.24.582.24z"/><path d="M25.632 27.828a.822.822 0 00-.244.584c-.01.729.913 1.097 1.408.577.322-.32.75-.497 1.204-.497a1.7 1.7 0 011.21.501c.796.743 1.905-.367 1.162-1.162a3.358 3.358 0 00-4.74-.003z"/></g><defs><clipPath id="oclip0"><path d="M0 0h56v56H0z"/></clipPath></defs></svg><svg viewBox="0 0 24 24" id="smart-tv" xmlns="http://www.w3.org/2000/svg"><path d="M22.5 2h-21C.673 2 0 2.673 0 3.5v14c0 .827.673 1.5 1.5 1.5H10v1.077l-5.582.93a.5.5 0 00.164.986L10.54 21h2.919l5.958.993a.497.497 0 00.575-.411.5.5 0 00-.411-.575L14 20.077V19h8.5c.827 0 1.5-.673 1.5-1.5v-14c0-.827-.673-1.5-1.5-1.5zM13 20h-2v-1h2v1zm10-2.5a.5.5 0 01-.5.5h-21a.5.5 0 01-.5-.5v-14a.5.5 0 01.5-.5h21a.5.5 0 01.5.5v14z"/><path d="M12 13a1 1 0 100 2 1 1 0 000-2zM8.818 10.318a.5.5 0 00.707.707 3.506 3.506 0 014.95 0 .502.502 0 00.707 0 .5.5 0 000-.707 4.506 4.506 0 00-6.364 0z"/><path d="M7.404 8.904a.5.5 0 00.707.707 5.505 5.505 0 017.778 0 .502.502 0 00.707 0 .5.5 0 000-.707 6.508 6.508 0 00-9.192 0zM10.232 11.733a.5.5 0 00.707.707c.566-.566 1.555-.566 2.121 0a.502.502 0 00.707 0 .5.5 0 000-.707c-.943-.944-2.592-.944-3.535 0z"/></svg><svg viewBox="0 0 10 16" id="tel" xmlns="http://www.w3.org/2000/svg"><path d="M.267 3.733c.147 0 .266-.12.266-.266V1.6c.002-.536.402-.987.934-1.053l.74 1.111c.198.297.531.475.888.475h3.412c.356 0 .69-.178.887-.475l.74-1.111c.531.066.931.517.933 1.053v9.333a.267.267 0 10.533 0V1.6C9.6.717 8.883 0 8 0H1.6C.717 0 0 .717 0 1.6v1.867c0 .147.12.266.267.266zm7.235-3.2l-.553.83a.533.533 0 01-.442.237H3.095a.533.533 0 01-.444-.238L2.098.533h5.404zM1.6 16H8c.883 0 1.6-.717 1.6-1.6v-2.133a.267.267 0 10-.533 0V14.4c0 .59-.478 1.067-1.067 1.067H1.6c-.59 0-1.067-.478-1.067-1.067V4.8A.267.267 0 000 4.8v9.6c0 .883.717 1.6 1.6 1.6z"/><path d="M7.733 14.133H1.866a.267.267 0 000 .534h5.867a.267.267 0 100-.534z"/></svg><svg viewBox="0 0 56 56" id="wifi-router" xmlns="http://www.w3.org/2000/svg"><g clip-path="url(#rclip0)"><path d="M52.987 36.526h-3.392l-.912-27.653a2.317 2.317 0 00-2.326-2.25 2.318 2.318 0 00-2.326 2.25l-.912 27.653h-5.948a.822.822 0 000 1.644h15.816c.755 0 1.37.615 1.37 1.37v6.824c0 .756-.615 1.37-1.37 1.37H18.482a.822.822 0 100 1.644h34.505A3.017 3.017 0 0056 46.364V39.54a3.017 3.017 0 00-3.014-3.014zm-7.313-27.6a.68.68 0 01.683-.66c.37 0 .67.29.683.66l.91 27.6h-3.186l.91-27.6z"/><path d="M15.194 47.734H3.014c-.756 0-1.37-.614-1.37-1.37V39.54c0-.755.614-1.37 1.37-1.37h30.869a.822.822 0 100-1.644H12.882L11.97 8.873a2.318 2.318 0 00-2.326-2.25 2.318 2.318 0 00-2.326 2.25l-.415 12.583a.822.822 0 101.643.054l.415-12.583a.68.68 0 01.683-.66c.37 0 .67.29.683.66l.91 27.6H8.051l.387-11.732a.822.822 0 10-1.643-.054l-.389 11.785H3.014A3.017 3.017 0 000 39.54v6.824a3.017 3.017 0 003.014 3.014h12.18a.822.822 0 100-1.644z"/><path d="M6.37 43.88a.822.822 0 000 1.644h2.626a.822.822 0 100-1.644H6.371zM15.195 43.88h-2.626a.822.822 0 000 1.644h2.626a.822.822 0 100-1.644zM18.766 43.88a.822.822 0 000 1.644h2.626a.822.822 0 100-1.644h-2.626zM24.965 43.88a.822.822 0 000 1.644h2.625a.822.822 0 100-1.644h-2.625zM43.546 45.524a.822.822 0 100-1.644h-2.625a.822.822 0 100 1.644h2.625zM49.66 45.524a.822.822 0 000-1.644h-2.626a.822.822 0 100 1.644h2.626zM17.938 20.14c5.549-5.549 14.577-5.549 20.125 0a.82.82 0 001.163 0 .822.822 0 000-1.162c-6.19-6.19-16.26-6.19-22.45 0a.822.822 0 001.162 1.162z"/><path d="M36.107 23.258a.822.822 0 000-1.163c-4.466-4.466-11.73-4.47-16.2-.014a.822.822 0 101.152 1.173c3.83-3.826 10.058-3.825 13.886.003.32.321.841.321 1.162 0z"/><path d="M32.468 26.557a.822.822 0 00.581-1.403A7.092 7.092 0 0028 23.063c-1.907 0-3.7.743-5.048 2.091a.822.822 0 101.162 1.163A5.46 5.46 0 0128 24.707a5.46 5.46 0 013.886 1.61c.16.16.371.24.582.24z"/><path d="M25.632 27.828a.822.822 0 00-.244.584c-.01.729.913 1.097 1.408.577.322-.32.75-.497 1.204-.497a1.7 1.7 0 011.21.501c.796.743 1.905-.367 1.162-1.162a3.358 3.358 0 00-4.74-.003z"/></g><defs><clipPath id="rclip0"><path d="M0 0h56v56H0z"/></clipPath></defs></svg></svg>