<svg width="1917" height="790" viewBox="0 0 1917 790" fill="none" xmlns="http://www.w3.org/2000/svg">
<path d="M-4 776.647C39.5101 785.969 172.633 799.019 357.041 776.647C587.553 748.682 747.707 664.288 1185.59 681.767C1535.89 695.749 1818.49 518.748 1916 451M-4 768.647C39.5101 777.969 172.633 791.019 357.041 768.647C587.553 740.682 747.707 656.288 1185.59 673.767C1535.89 687.749 1818.49 468.748 1916 401M-4 760.647C39.5101 769.969 172.633 783.019 357.041 760.647C587.553 732.682 747.707 648.288 1185.59 665.767C1535.89 679.749 1818.49 418.748 1916 351M-4 752.647C39.5101 761.969 172.633 775.019 357.041 752.647C587.553 724.682 747.707 640.288 1185.59 657.767C1535.89 671.749 1818.49 368.748 1916 301M-4 744.647C39.5101 753.969 172.633 767.019 357.041 744.647C587.553 716.682 747.707 632.288 1185.59 649.767C1535.89 663.749 1818.49 318.748 1916 251M-4 736.647C39.5101 745.969 172.633 759.019 357.041 736.647C587.553 708.682 747.707 624.288 1185.59 641.767C1535.89 655.749 1818.49 268.748 1916 201M-4 728.647C39.5101 737.969 172.633 751.019 357.041 728.647C587.553 700.682 747.707 616.288 1185.59 633.767C1535.89 647.749 1818.49 218.748 1916 151M-4 720.647C39.5101 729.969 172.633 743.019 357.041 720.647C587.553 692.682 747.707 608.288 1185.59 625.767C1535.89 639.749 1818.49 168.748 1916 101M-4 712.647C39.5101 721.969 172.633 735.019 357.041 712.647C587.553 684.682 747.707 600.288 1185.59 617.767C1535.89 631.749 1818.49 118.748 1916 51M-4 704.647C39.5101 713.969 172.633 727.019 357.041 704.647C587.553 676.682 747.707 592.288 1185.59 609.767C1535.89 623.749 1818.49 68.7482 1916 1" stroke="white"/>
</svg>
