<svg width="56" height="56" viewBox="0 0 56 56" fill="none" xmlns="http://www.w3.org/2000/svg">
<g clip-path="url(#clip0)">
<path d="M49.2825 23.5819C49.076 23.1916 49.076 22.7255 49.2824 22.3354L49.9717 21.0333C51.0322 19.0299 50.456 16.505 48.6312 15.1601L47.4454 14.2861C47.0899 14.024 46.8877 13.6042 46.9046 13.1632L46.9607 11.6909C47.0469 9.42593 45.4321 7.40111 43.2047 6.98109L41.7569 6.70811C41.323 6.62627 40.9587 6.33579 40.7825 5.93098L40.1942 4.58022C39.2891 2.50212 36.9559 1.37817 34.7667 1.96645L33.3438 2.34873C32.9175 2.46317 32.4631 2.35956 32.1287 2.07138L31.0126 1.10957C29.2957 -0.369856 26.7058 -0.369856 24.9886 1.10957L23.8724 2.07138C23.5379 2.35956 23.0838 2.46317 22.6574 2.34873L21.2346 1.96645C19.0452 1.37838 16.7122 2.50212 15.807 4.58022L15.2186 5.93109C15.0424 6.33579 14.6782 6.62627 14.2442 6.70811L12.7964 6.98109C10.569 7.40111 8.95423 9.42593 9.04044 11.6909L9.09646 13.1632C9.11331 13.6044 8.91112 14.0242 8.55576 14.2861L7.36977 15.1602C5.54517 16.5051 4.96891 19.03 6.0293 21.0334L6.71857 22.3355C6.92514 22.7256 6.92514 23.1916 6.71857 23.5819L6.0293 24.8839C4.96891 26.8872 5.54517 29.4121 7.36977 30.7571L8.55565 31.6312C8.91112 31.8932 9.1132 32.3129 9.09635 32.7542L9.04033 34.2264C8.95412 36.4915 10.5689 38.5164 12.7963 38.9363L13.5558 39.0795L8.32502 48.5316C8.03454 49.0566 8.05368 49.6981 8.3748 50.2048C8.69591 50.7115 9.26834 51.003 9.86658 50.964L14.6701 50.6541L16.8115 55.0745C17.0792 55.6271 17.6331 55.984 18.247 55.9996C18.261 55.9999 18.2747 56.0002 18.2887 56.0002C18.8866 56.0002 19.4387 55.6745 19.7274 55.1484L25.2759 45.0347C26.0812 45.6227 27.0407 45.9174 28.0005 45.9174C28.9457 45.9174 29.8906 45.6322 30.6882 45.0622L36.2214 55.1483C36.5101 55.6746 37.0622 56.0002 37.66 56.0002C37.6739 56.0002 37.6879 56.0001 37.7018 55.9996C38.3155 55.9841 38.8695 55.6272 39.1371 55.0746L41.2787 50.6541L46.082 50.964C46.681 51.003 47.2527 50.7116 47.5739 50.2048C47.895 49.6981 47.9141 49.0566 47.6236 48.5317L42.3978 39.0884L43.2047 38.9363C45.4321 38.5164 47.0469 36.4915 46.9607 34.2263L46.9046 32.7542C46.8878 32.313 47.0899 31.8932 47.4452 31.6313L48.6312 30.7572C50.456 29.4124 51.0322 26.8874 49.9717 24.884L49.2825 23.5819ZM18.379 50.7816L17.1428 48.2296C16.8518 47.6291 16.2256 47.2641 15.5602 47.3074L12.6497 47.4951L15.9227 41.5808C16.8988 43.5014 19.1324 44.5154 21.2341 43.9506L22.2807 43.6695L18.379 50.7816ZM43.2987 47.4951L40.3883 47.3074C39.7217 47.265 39.0967 47.6291 38.8057 48.2296L37.5694 50.7816L33.6588 43.6531L34.7663 43.9506C35.158 44.0557 35.5539 44.1061 35.9456 44.1061C37.6386 44.106 39.2499 43.1639 40.0531 41.6301L43.2987 47.4951ZM46.3816 25.1173L47.0709 26.4194C47.377 26.9977 47.2106 27.7266 46.6839 28.1148L45.4978 28.9889C44.2668 29.8963 43.5665 31.3504 43.6246 32.8789L43.6807 34.3509C43.7057 35.0049 43.2395 35.5893 42.5965 35.7106L41.1486 35.9835C40.3539 36.1334 39.6281 36.4869 39.0289 36.9926C39.01 37.008 38.9912 37.0237 38.9732 37.0399C38.4646 37.4831 38.051 38.0377 37.7733 38.6754L37.185 40.0262C36.9238 40.6261 36.25 40.9505 35.6182 40.7807L34.1953 40.3985C31.1505 39.5803 29.3507 42.0384 28.8701 42.3209C28.3744 42.7481 27.6269 42.7482 27.131 42.3209L26.015 41.3592C24.8743 40.3763 23.3052 39.9958 21.8058 40.3985L20.3829 40.7807C19.7513 40.9504 19.0774 40.6261 18.8161 40.0262L18.2278 38.6755C17.6209 37.2818 16.3546 36.2668 14.8523 35.9835L13.4045 35.7106C12.7615 35.5893 12.2955 35.0048 12.3203 34.3508L12.3763 32.8787C12.4345 31.3504 11.7342 29.8963 10.503 28.9888L9.31713 28.1148C8.79044 27.7266 8.62403 26.9977 8.93016 26.4194L9.61943 25.1172C10.335 23.7655 10.335 22.1515 9.61943 20.7998L8.93016 19.4978C8.62403 18.9194 8.79044 18.1905 9.31713 17.8024L10.5031 16.9282C11.7342 16.0207 12.4345 14.5666 12.3763 13.0384L12.3203 11.5661C12.2953 10.9121 12.7615 10.3277 13.4045 10.2064L14.8522 9.93348C16.3552 9.65011 17.6171 8.64377 18.2277 7.2417L18.8161 5.89094C19.0774 5.29105 19.7509 4.96655 20.3828 5.13635L21.8057 5.51862C23.283 5.91545 24.8564 5.55626 26.0148 4.55791L27.1309 3.5962C27.6267 3.16907 28.3741 3.16907 28.87 3.5962L29.9861 4.55791C31.1447 5.55637 32.7184 5.91545 34.1953 5.51873L35.6182 5.13646C36.2499 4.96677 36.9238 5.29105 37.185 5.89105L37.7733 7.2417C38.3839 8.64388 39.6458 9.65022 41.1488 9.93358L42.5966 10.2066C43.2396 10.3278 43.7058 10.9124 43.6808 11.5661L43.6247 13.0385C43.5666 14.5667 44.2669 16.0209 45.498 16.9283L46.684 17.8025C47.2107 18.1906 47.3771 18.9195 47.071 19.4979L46.3816 20.8C45.6662 22.1516 45.6662 23.7655 46.3816 25.1173ZM34.4796 19.306L31.0194 18.8032L29.4719 15.6678C29.1955 15.1076 28.6249 14.753 28.0003 14.753C27.3757 14.753 26.8051 15.1077 26.5286 15.6679L24.9813 18.8033L21.5211 19.3061C20.903 19.3959 20.3893 19.8289 20.1963 20.423C20.0032 21.0171 20.1642 21.6693 20.6115 22.1053L23.1153 24.5459L22.5243 27.992C22.4187 28.6077 22.6718 29.23 23.1771 29.5971C23.6826 29.9643 24.3525 30.0128 24.9054 29.7221L28.0003 28.0951L31.0951 29.7221C31.6535 30.0156 32.323 29.9607 32.8235 29.5971C33.3288 29.23 33.582 28.6078 33.4764 27.992L32.8854 24.5459L35.3892 22.1053C35.8365 21.6693 35.9975 21.0171 35.8044 20.423C35.6113 19.8289 35.0977 19.3958 34.4796 19.306ZM29.9764 22.7976C29.5897 23.1746 29.4132 23.7179 29.5044 24.2502L29.6793 25.2694L28.764 24.7882C28.5249 24.6625 28.2625 24.5997 28.0003 24.5997C27.738 24.5997 27.4757 24.6625 27.2366 24.7882L26.3214 25.2693L26.4962 24.2502C26.5875 23.7179 26.411 23.1746 26.0243 22.7976L25.2838 22.0759L26.3071 21.9272C26.8417 21.8495 27.3037 21.5137 27.5427 21.0294L28.0003 20.1021L28.4579 21.0294C28.697 21.5137 29.1591 21.8495 29.6936 21.9272L30.7169 22.0759L29.9764 22.7976ZM28.0003 8.18841C19.856 8.18841 13.2301 14.8143 13.2301 22.9586C13.2301 31.1028 19.856 37.7287 28.0003 37.7287C36.1446 37.7287 42.7704 31.1028 42.7704 22.9586C42.7704 14.8143 36.1447 8.18841 28.0003 8.18841ZM28.0003 34.4465C21.6659 34.4465 16.5124 29.293 16.5124 22.9586C16.5124 16.6241 21.6659 11.4707 28.0003 11.4707C34.3347 11.4707 39.4882 16.6241 39.4882 22.9586C39.4882 29.293 34.3348 34.4465 28.0003 34.4465Z" fill="#0047E8"/>
</g>
<defs>
<clipPath id="clip0">
<rect width="56" height="56" fill="white"/>
</clipPath>
</defs>
</svg>
