<svg width="32" height="32" viewBox="0 0 32 32" fill="none" xmlns="http://www.w3.org/2000/svg">
<g clip-path="url(#clip0)">
<path d="M30.7797 5.91863L11.1812 1.77105C10.3521 1.59563 9.53019 2.13058 9.35476 2.95977L8.98242 5.35257L31.5957 10.1379L31.9681 7.7451C32.1435 6.91624 31.6089 6.09411 30.7797 5.91863Z" fill="#FF5200"/>
<path d="M22.5366 10.6454C22.3077 9.82099 21.4462 9.33372 20.6221 9.56227L16.9016 10.5951L8.13068 8.73889L7.16607 13.2966L1.13916 14.9694C0.315099 15.198 -0.172172 16.0595 0.0563785 16.8836L3.4529 29.123C3.68181 29.9471 4.54336 30.4347 5.36742 30.2058L24.8503 24.7991C25.6744 24.5702 26.1616 23.709 25.9331 22.8846L25.3501 20.7834L27.5351 21.2454C28.3643 21.4211 29.1862 20.8862 29.3616 20.057L30.7441 13.5243L22.8734 11.8588L22.5366 10.6454ZM24.7866 16.866L25.2684 14.5887C25.3408 14.2477 25.6789 14.0278 26.0198 14.0998L28.297 14.582C28.6383 14.6543 28.8582 14.9921 28.7862 15.3333L28.3044 17.6106C28.232 17.9516 27.894 18.1718 27.553 18.0995L25.2758 17.6176C24.9342 17.545 24.7142 17.2069 24.7866 16.866ZM1.47819 16.1908L6.86986 14.695L19.5915 11.1647L20.9604 10.7843C20.9854 10.7776 21.0103 10.7744 21.0347 10.7744C21.1445 10.7744 21.2758 10.8465 21.3142 10.9844L21.4749 11.5633L21.9785 13.3779L1.9424 18.938L1.27809 16.5449C1.23646 16.3947 1.32807 16.2324 1.47819 16.1908ZM24.7113 23.2232C24.737 23.3161 24.7101 23.3929 24.6828 23.4409C24.656 23.4889 24.6041 23.5517 24.5112 23.5773L5.0287 28.984C5.00407 28.9908 4.97876 28.9943 4.9544 28.9943C4.84459 28.9943 4.7133 28.9219 4.67492 28.7839L2.69383 21.6449L22.7299 16.0845L23.952 20.4875L24.7113 23.2232Z" fill="#FF5200"/>
<path d="M8.17637 23.7117C8.08288 23.3756 7.73198 23.1771 7.39582 23.2702L5.12051 23.9019C4.78466 23.9951 4.58587 24.3463 4.67936 24.6824L5.31068 26.9574C5.40417 27.2936 5.75508 27.492 6.09124 27.3986L8.36655 26.7672C8.7027 26.6741 8.90119 26.3228 8.80801 25.9867L8.17637 23.7117Z" fill="#FF5200"/>
</g>
<defs>
<clipPath id="clip0">
<rect width="32" height="32" fill="white"/>
</clipPath>
</defs>
</svg>
