<svg width="56" height="56" viewBox="0 0 56 56" fill="none" xmlns="http://www.w3.org/2000/svg">
<g clip-path="url(#clip0)">
<path d="M45.4462 48.7742L43.3552 42.5004C42.6245 40.31 40.7603 38.6933 38.4878 38.2796L32.4515 37.1813V36.7134C33.5019 36.1037 34.416 35.2881 35.144 34.3225H36.9676C38.4616 34.3225 39.6773 33.1068 39.6773 31.6129V20.7742C39.6773 14.2998 34.4097 9.03223 27.9354 9.03223C21.461 9.03223 16.1934 14.2998 16.1934 20.7742V27.0967C16.1934 28.8382 17.4318 30.2951 19.0738 30.6347C19.5805 33.2306 21.2027 35.4272 23.4192 36.7134V37.1813L17.3821 38.2796C15.1105 38.6933 13.2453 40.31 12.5155 42.5004L12.1542 43.5851L9.07782 40.5087C8.72556 40.1565 8.72556 39.5829 9.07782 39.2307L12.6456 35.6638L5.94904 28.9673L1.91704 32.9993C0.722978 34.1934 0.0654297 35.7813 0.0654297 37.4703C0.0654297 39.1593 0.722978 40.7463 1.91704 41.9404L14.1241 54.1475C15.3182 55.3415 16.9061 56 18.5951 56C20.2841 56 21.8711 55.3415 23.0372 54.1745L27.4368 50.1435L26.0648 48.7742H45.4462ZM37.8709 31.6129C37.8709 32.1115 37.4653 32.5161 36.9676 32.5161H36.208C36.47 31.9191 36.6687 31.2895 36.7969 30.6347C37.1835 30.5543 37.5394 30.4007 37.8709 30.2075V31.6129ZM36.9676 28.6521V25.5414C37.505 25.8548 37.8709 26.4311 37.8709 27.0967C37.8709 27.7624 37.505 28.3387 36.9676 28.6521ZM18.9031 28.6521C18.3657 28.3387 17.9999 27.7624 17.9999 27.0967C17.9999 26.4311 18.3657 25.8548 18.9031 25.5414V28.6521ZM18.9031 22.5806V23.6121C18.5816 23.6961 18.2799 23.8225 17.9999 23.986V20.7742C17.9999 15.2961 22.4573 10.8387 27.9354 10.8387C33.4134 10.8387 37.8709 15.2961 37.8709 20.7742V23.986C37.5909 23.8225 37.2892 23.6952 36.9676 23.6121V22.5806H36.0644C33.3936 22.5806 30.8826 21.5401 28.993 19.6515L27.9354 18.5938L26.8777 19.6515C24.9881 21.5401 22.4772 22.5806 19.8063 22.5806H18.9031ZM20.7096 28.9032V24.3527C23.4219 24.1486 25.951 23.0295 27.9354 21.1427C29.9198 23.0295 32.4488 24.1495 35.1612 24.3527V28.9032C35.1612 30.2201 34.8017 31.4521 34.1839 32.5161H27.9354V34.3225H32.699C31.4254 35.4435 29.7608 36.129 27.9354 36.129C23.9512 36.129 20.7096 32.8873 20.7096 28.9032ZM30.645 37.5191V37.5615L27.9354 40.2712L25.2257 37.5615V37.5191C26.0819 37.7882 26.9915 37.9355 27.9354 37.9355C28.8792 37.9355 29.7888 37.7882 30.645 37.5191ZM14.228 43.0712C14.7492 41.5068 16.0814 40.3516 17.7045 40.0553L24.0181 38.9082L27.9354 42.8255L31.8518 38.9091L38.1644 40.0562C39.7875 40.3525 41.1198 41.5068 41.6409 43.0721L42.9407 46.9677H24.2583L20.7403 43.4496L16.8311 46.9858C16.4906 47.3281 15.8954 47.3281 15.5539 46.9858L13.5813 45.0131L14.228 43.0712ZM5.94814 31.5216L10.0903 35.6638L9.10943 36.6447L4.96724 32.5026L5.94814 31.5216ZM21.7862 52.8721C20.9336 53.7229 19.7991 54.1935 18.5933 54.1935C17.3875 54.1935 16.253 53.7229 15.3995 52.8703L3.1924 40.6641C2.33975 39.8115 1.87007 38.677 1.87007 37.4712C1.87007 36.2645 2.33975 35.13 3.1924 34.2774L3.68917 33.7806L7.83137 37.9228L7.79885 37.9553C6.74298 39.0121 6.74298 40.7309 7.79885 41.7877L14.2759 48.2647C14.788 48.776 15.4681 49.0587 16.1925 49.0587C16.9169 49.0587 17.597 48.7769 18.0758 48.2964L18.1435 48.2358L22.3047 52.397L21.7862 52.8721ZM23.6378 51.174L19.4857 47.0219L20.6789 45.9435L24.8238 50.0884L23.6378 51.174Z" fill="#FF5200"/>
<path d="M53.2259 0H40.5808C39.0868 0 37.8711 1.21574 37.8711 2.70968V9.93548C37.8711 11.4294 39.0868 12.6452 40.5808 12.6452H42.9933L42.0593 18.0925L50.7755 12.6452H53.2259C54.7199 12.6452 55.9356 11.4294 55.9356 9.93548V2.70968C55.9356 1.21574 54.7199 0 53.2259 0ZM54.1292 9.93548C54.1292 10.4332 53.7236 10.8387 53.2259 10.8387H50.257L44.5206 14.4236L45.1357 10.8387H40.5808C40.0831 10.8387 39.6775 10.4332 39.6775 9.93548V2.70968C39.6775 2.212 40.0831 1.80645 40.5808 1.80645H53.2259C53.7236 1.80645 54.1292 2.212 54.1292 2.70968V9.93548Z" fill="#FF5200"/>
<path d="M52.3231 3.61279H41.4844V5.41924H52.3231V3.61279Z" fill="#FF5200"/>
<path d="M48.7102 7.22583H41.4844V9.03228H48.7102V7.22583Z" fill="#FF5200"/>
<path d="M52.3231 7.22583H50.5166V9.03228H52.3231V7.22583Z" fill="#FF5200"/>
<path d="M27.9353 2.70972C16.1337 2.70972 5.96794 10.8731 3.3251 22.26L1.61349 19.4067L0.0644531 20.3362L3.23929 25.6264L8.52948 22.4515L7.60007 20.9025L5.15232 22.3711C7.71207 11.9542 17.0794 4.51617 27.9353 4.51617C30.3081 4.51617 32.6492 4.86843 34.8937 5.56391L35.4285 3.83875C33.0105 3.08907 30.4896 2.70972 27.9353 2.70972Z" fill="#FF5200"/>
<path d="M55.4966 19.9991L50.2064 16.8242L47.0325 22.1153L48.5815 23.0447L50.1622 20.41C50.994 22.8442 51.4194 25.3904 51.4194 27.9998C51.4194 33.3713 49.5588 38.6227 46.1816 42.7857L47.5843 43.9237C51.2225 39.4401 53.2259 33.7841 53.2259 27.9998C53.2259 25.2369 52.7806 22.5389 51.9126 19.9557L54.5672 21.5481L55.4966 19.9991Z" fill="#FF5200"/>
</g>
<defs>
<clipPath id="clip0">
<rect width="56" height="56" fill="white"/>
</clipPath>
</defs>
</svg>
