<svg width="24" height="25" viewBox="0 0 24 25" fill="none" xmlns="http://www.w3.org/2000/svg">
<path d="M19.8478 6.81405C19.63 6.95579 19.5682 7.24727 19.71 7.46511C20.6946 8.9787 21.1923 10.792 21.1493 12.709C21.1435 12.9688 21.3494 13.1842 21.6092 13.19C21.6128 13.19 21.6164 13.1901 21.62 13.1901C21.875 13.1901 22.0845 12.9863 22.0903 12.7301C22.1376 10.6229 21.5873 8.62487 20.4989 6.95184C20.3571 6.7341 20.0657 6.6724 19.8478 6.81405Z" fill="#0047E8"/>
<path d="M20.4871 20.9834C22.7524 18.7171 24 15.7044 24 12.5C24 9.29468 22.7518 6.28122 20.4853 4.01473C20.4851 4.01459 20.485 4.01449 20.4849 4.01435C20.4847 4.01416 20.4846 4.01398 20.4844 4.01379C20.4841 4.01351 20.4837 4.01322 20.4834 4.01294C18.2171 1.74758 15.2044 0.5 12 0.5C8.79558 0.5 5.78287 1.74758 3.51661 4.01289C3.51633 4.01318 3.51595 4.01346 3.51567 4.01374C3.51548 4.01393 3.51534 4.01412 3.51515 4.01431C3.51501 4.01445 3.51487 4.01454 3.51478 4.01468C1.24824 6.28122 0 9.29468 0 12.5C0 15.7044 1.24758 18.7171 3.51289 20.9834C3.51318 20.9837 3.51346 20.984 3.51374 20.9843C3.51393 20.9845 3.51412 20.9847 3.51431 20.9848C3.51445 20.985 3.51454 20.9851 3.51468 20.9852C5.78122 23.2518 8.79468 24.5 12 24.5C15.2053 24.5 18.2188 23.2518 20.4853 20.9853C20.4854 20.9851 20.4855 20.985 20.4856 20.9849C20.4858 20.9847 20.486 20.9846 20.4862 20.9844C20.4865 20.984 20.4868 20.9837 20.4871 20.9834ZM20.1424 19.975L16.7306 16.5632C17.6703 15.4708 18.2391 14.0506 18.2391 12.5C18.2391 10.9484 17.6696 9.52744 16.7289 8.43473L20.1405 5.02311C21.9514 6.99313 23.0588 9.61953 23.0588 12.5C23.0588 15.3795 21.9522 18.0051 20.1424 19.975ZM6.70212 12.5C6.70212 9.57873 9.07873 7.20212 12 7.20212C14.9213 7.20212 17.2979 9.57873 17.2979 12.5C17.2979 15.4213 14.9213 17.7979 12 17.7979C9.07873 17.7979 6.70212 15.4213 6.70212 12.5ZM19.475 4.35765L16.0632 7.76936C14.9708 6.82969 13.5506 6.26094 12 6.26094C10.4494 6.26094 9.02922 6.82969 7.9368 7.76936L4.52504 4.35765C6.49487 2.54781 9.12047 1.44118 12 1.44118C14.8795 1.44118 17.5051 2.54781 19.475 4.35765ZM3.85944 5.02311L7.27106 8.43473C6.33035 9.52744 5.76089 10.9484 5.76089 12.5C5.76089 14.0506 6.32965 15.4708 7.26932 16.5632L3.8576 19.975C2.04781 18.0051 0.941176 15.3795 0.941176 12.5C0.941176 9.61953 2.04856 6.99313 3.85944 5.02311ZM4.52311 20.6406L7.93473 17.2289C9.02744 18.1696 10.4484 18.7391 12 18.7391C13.5516 18.7391 14.9726 18.1696 16.0653 17.2289L19.4769 20.6406C17.5069 22.4514 14.8805 23.5588 12 23.5588C9.11953 23.5588 6.49313 22.4514 4.52311 20.6406Z" fill="#0047E8"/>
<path d="M21.9168 14.1555C21.8024 13.8515 21.3722 13.767 21.1497 14.0026C20.8549 14.2938 21.068 14.8083 21.4825 14.8059C21.8064 14.8149 22.0507 14.4515 21.9168 14.1555Z" fill="#0047E8"/>
</svg>
