<svg width="10" height="16" viewBox="0 0 10 16" fill="none" xmlns="http://www.w3.org/2000/svg">
<path d="M0.266667 3.73333C0.413943 3.73333 0.533333 3.61394 0.533333 3.46667V1.6C0.535021 1.06409 0.934836 0.612981 1.46667 0.546933L2.20747 1.6584C2.40525 1.95503 2.73815 2.13324 3.09467 2.13333H6.50667C6.86328 2.13333 7.1963 1.95511 7.39413 1.6584L8.13333 0.546933C8.66516 0.612981 9.06498 1.06409 9.06667 1.6V10.9333C9.06667 11.0806 9.18606 11.2 9.33333 11.2C9.48061 11.2 9.6 11.0806 9.6 10.9333V1.6C9.59912 0.71671 8.88329 0.000881968 8 0H1.6C0.71671 0.000881968 0.000881968 0.71671 0 1.6V3.46667C0 3.61394 0.119391 3.73333 0.266667 3.73333ZM7.50187 0.533333L6.94907 1.3624C6.85044 1.51041 6.68453 1.59952 6.50667 1.6H3.09467C2.91633 1.59997 2.74982 1.51081 2.65093 1.3624L2.09813 0.533333H7.50187Z" fill="white"/>
<path d="M1.6 16.0001H8C8.88329 15.9992 9.59912 15.2834 9.6 14.4001V12.2668C9.6 12.1195 9.48061 12.0001 9.33333 12.0001C9.18606 12.0001 9.06667 12.1195 9.06667 12.2668V14.4001C9.06667 14.9892 8.5891 15.4668 8 15.4668H1.6C1.0109 15.4668 0.533333 14.9892 0.533333 14.4001V4.80011C0.533333 4.65284 0.413943 4.53345 0.266667 4.53345C0.119391 4.53345 0 4.65284 0 4.80011V14.4001C0.000881968 15.2834 0.71671 15.9992 1.6 16.0001Z" fill="white"/>
<path d="M7.73294 14.1333H1.86628C1.719 14.1333 1.59961 14.2527 1.59961 14.4C1.59961 14.5472 1.719 14.6666 1.86628 14.6666H7.73294C7.88022 14.6666 7.99961 14.5472 7.99961 14.4C7.99961 14.2527 7.88022 14.1333 7.73294 14.1333Z" fill="white"/>
</svg>
