<svg width="32" height="32" viewBox="0 0 32 32" fill="none" xmlns="http://www.w3.org/2000/svg">
<circle cx="16" cy="16" r="16" fill="#F79A38"/>
<path d="M20.9905 18.2342C21.4103 17.8144 21.4703 17.2147 21.1104 16.6151C20.8106 16.1353 20.2709 15.8954 19.6712 16.0154C19.4313 16.0753 19.1914 16.1953 18.9516 16.3752C17.0925 17.6345 14.5738 17.5746 12.7148 16.3152C12.5949 16.2552 12.4749 16.1953 12.355 16.1353C11.6953 15.8355 11.0357 15.9554 10.6759 16.5551C10.2561 17.1548 10.3161 17.8144 10.8558 18.3542C10.9757 18.4741 11.0956 18.5341 11.1556 18.654L11.2156 18.714C12.0552 19.3736 13.0746 19.7934 14.3939 19.9733L13.6143 20.7529C12.9547 21.4126 12.2351 22.1322 11.5754 22.7918C11.3955 22.9718 11.1556 23.2716 11.1556 23.6914C11.1556 24.2311 11.4555 24.7708 11.9952 25.0107C12.1751 25.1306 12.355 25.1306 12.5349 25.1306C12.8347 25.1306 13.1946 25.0107 13.4344 24.7108C14.334 23.8113 15.0536 23.0917 15.7732 22.3721C15.8332 22.3121 15.8332 22.3121 15.8332 22.3121C15.8332 22.3121 15.8932 22.3121 15.8932 22.3721C16.3729 22.9118 16.9126 23.3915 17.3924 23.9312C17.6323 24.1711 17.8721 24.411 18.112 24.6509C18.4118 24.9507 18.6517 25.0707 19.0115 25.0707C19.5513 25.1306 20.1509 24.7708 20.3908 24.2311C20.6307 23.7513 20.5108 23.1517 20.091 22.7918C19.4913 22.1922 18.8916 21.5325 18.2319 20.9328L17.2125 19.9133C17.7522 19.8534 18.3519 19.7334 18.8916 19.4936C19.7911 19.1937 20.4508 18.7739 20.9905 18.2342Z" fill="white"/>
<path d="M15.8332 16.5551C18.4118 16.5551 20.5108 14.5161 20.5108 11.9375C20.5108 10.6781 20.031 9.47877 19.1315 8.57924C18.2319 7.6797 17.0925 7.19995 15.8932 7.19995C13.3145 7.19995 11.2756 9.29886 11.2156 11.8175C11.2156 13.0769 11.6953 14.2163 12.5949 15.1158C13.4344 16.0753 14.5738 16.5551 15.8332 16.5551ZM14.5139 10.5582C14.8737 10.1984 15.3534 10.0185 15.8332 10.0185C16.9126 10.0185 17.6922 10.858 17.6922 11.8775C17.6922 12.957 16.8527 13.7365 15.8332 13.7365C14.7537 13.7365 13.9742 12.897 13.9742 11.8775C13.9742 11.3978 14.1541 10.918 14.5139 10.5582Z" fill="white"/>
<path d="M20.9905 18.2342C21.4103 17.8144 21.4703 17.2147 21.1104 16.6151C20.8106 16.1353 20.2709 15.8954 19.6712 16.0154C19.4313 16.0753 19.1914 16.1953 18.9516 16.3752C17.0925 17.6345 14.5738 17.5746 12.7148 16.3152C12.5949 16.2552 12.4749 16.1953 12.355 16.1353C11.6953 15.8355 11.0357 15.9554 10.6759 16.5551C10.2561 17.1548 10.3161 17.8144 10.8558 18.3542C10.9757 18.4741 11.0956 18.5341 11.1556 18.654L11.2156 18.714C12.0552 19.3736 13.0746 19.7934 14.3939 19.9733L13.6143 20.7529C12.9547 21.4126 12.2351 22.1322 11.5754 22.7918C11.3955 22.9718 11.1556 23.2716 11.1556 23.6914C11.1556 24.2311 11.4555 24.7708 11.9952 25.0107C12.1751 25.1306 12.355 25.1306 12.5349 25.1306C12.8347 25.1306 13.1946 25.0107 13.4344 24.7108C14.334 23.8113 15.0536 23.0917 15.7732 22.3721C15.8332 22.3121 15.8332 22.3121 15.8332 22.3121C15.8332 22.3121 15.8932 22.3121 15.8932 22.3721C16.3729 22.9118 16.9126 23.3915 17.3924 23.9312C17.6323 24.1711 17.8721 24.411 18.112 24.6509C18.4118 24.9507 18.6517 25.0707 19.0115 25.0707C19.5513 25.1306 20.1509 24.7708 20.3908 24.2311C20.6307 23.7513 20.5108 23.1517 20.091 22.7918C19.4913 22.1922 18.8916 21.5325 18.2319 20.9328L17.2125 19.9133C17.7522 19.8534 18.3519 19.7334 18.8916 19.4936C19.7911 19.1937 20.4508 18.7739 20.9905 18.2342Z" fill="white"/>
</svg>
