<svg width="84" height="28" viewBox="0 0 84 28" fill="none" xmlns="http://www.w3.org/2000/svg">
<rect width="84" height="19" fill="#2B74B9"/>
<path d="M11.63 13.1C11.21 13.1 10.84 13 10.52 12.8C10.2 12.6 9.94667 12.34 9.76 12.02V15.13H8.66V7.77H9.63V8.71C9.83 8.39667 10.09 8.14667 10.41 7.96C10.73 7.77333 11.0867 7.68 11.48 7.68C11.96 7.68 12.3833 7.80667 12.75 8.06C13.1233 8.30667 13.4167 8.63667 13.63 9.05C13.8433 9.45667 13.95 9.9 13.95 10.38C13.95 10.8867 13.85 11.3467 13.65 11.76C13.45 12.1667 13.1767 12.4933 12.83 12.74C12.4833 12.98 12.0833 13.1 11.63 13.1ZM11.27 12.16C11.5833 12.16 11.8533 12.0767 12.08 11.91C12.3133 11.7367 12.4933 11.5167 12.62 11.25C12.7533 10.9767 12.82 10.6867 12.82 10.38C12.82 10.06 12.7467 9.76667 12.6 9.5C12.46 9.23333 12.2667 9.02 12.02 8.86C11.78 8.7 11.5033 8.62 11.19 8.62C11.0033 8.62 10.8067 8.66667 10.6 8.76C10.4 8.85333 10.2233 8.97667 10.07 9.13C9.91667 9.28333 9.81333 9.45667 9.76 9.65V11.02C9.89333 11.34 10.0967 11.61 10.37 11.83C10.65 12.05 10.95 12.16 11.27 12.16ZM17.3093 13.1C16.7693 13.1 16.296 12.9767 15.8893 12.73C15.4826 12.4833 15.166 12.1567 14.9393 11.75C14.7126 11.3367 14.5993 10.8867 14.5993 10.4C14.5993 9.90667 14.7126 9.45333 14.9393 9.04C15.166 8.62667 15.4826 8.29667 15.8893 8.05C16.296 7.80333 16.7726 7.68 17.3193 7.68C17.866 7.68 18.3393 7.80667 18.7393 8.06C19.1393 8.30667 19.446 8.63333 19.6593 9.04C19.8793 9.44667 19.9893 9.88333 19.9893 10.35C19.9893 10.5167 19.9793 10.65 19.9593 10.75H15.7693C15.7893 11.0567 15.8726 11.3267 16.0193 11.56C16.1726 11.7867 16.3626 11.9667 16.5893 12.1C16.8226 12.2267 17.076 12.29 17.3493 12.29C17.6426 12.29 17.9193 12.2167 18.1793 12.07C18.4393 11.9233 18.6193 11.73 18.7193 11.49L19.6593 11.76C19.4793 12.1533 19.1793 12.4767 18.7593 12.73C18.346 12.9767 17.8626 13.1 17.3093 13.1ZM15.7393 10.02H18.8993C18.8726 9.72 18.786 9.45667 18.6393 9.23C18.4926 8.99667 18.3026 8.81667 18.0693 8.69C17.8426 8.55667 17.5893 8.49 17.3093 8.49C17.036 8.49 16.7826 8.55667 16.5493 8.69C16.3226 8.81667 16.136 8.99667 15.9893 9.23C15.8426 9.45667 15.7593 9.72 15.7393 10.02ZM20.8866 13V7.77H21.9766V9.84H22.4966L24.0366 7.77H25.2566L23.3466 10.3L25.4766 13H24.2066L22.4866 10.83H21.9766V13H20.8866ZM28.3928 13.1C27.8461 13.1 27.3695 12.9767 26.9628 12.73C26.5628 12.4767 26.2528 12.1467 26.0328 11.74C25.8128 11.3267 25.7028 10.8767 25.7028 10.39C25.7028 9.90333 25.8128 9.45667 26.0328 9.05C26.2595 8.63667 26.5728 8.30667 26.9728 8.06C27.3795 7.80667 27.8528 7.68 28.3928 7.68C28.9328 7.68 29.4028 7.80667 29.8028 8.06C30.2095 8.30667 30.5228 8.63667 30.7428 9.05C30.9695 9.45667 31.0828 9.90333 31.0828 10.39C31.0828 10.8767 30.9728 11.3267 30.7528 11.74C30.5328 12.1467 30.2195 12.4767 29.8128 12.73C29.4128 12.9767 28.9395 13.1 28.3928 13.1ZM26.8328 10.4C26.8328 10.7333 26.9028 11.0333 27.0428 11.3C27.1828 11.5667 27.3695 11.7767 27.6028 11.93C27.8361 12.0833 28.0995 12.16 28.3928 12.16C28.6795 12.16 28.9395 12.0833 29.1728 11.93C29.4128 11.77 29.6028 11.5567 29.7428 11.29C29.8828 11.0233 29.9528 10.7233 29.9528 10.39C29.9528 10.0567 29.8828 9.75667 29.7428 9.49C29.6028 9.22333 29.4128 9.01333 29.1728 8.86C28.9395 8.7 28.6795 8.62 28.3928 8.62C28.1061 8.62 27.8428 8.7 27.6028 8.86C27.3695 9.01333 27.1828 9.22667 27.0428 9.5C26.9028 9.76667 26.8328 10.0667 26.8328 10.4ZM32.0584 13V7.77H33.1984L34.9984 11L36.8084 7.77H37.9284V13H36.8784V9.32L35.3384 12.07H34.6484L33.0984 9.32V13H32.0584ZM41.6159 13.1C41.0759 13.1 40.6026 12.9767 40.1959 12.73C39.7893 12.4833 39.4726 12.1567 39.2459 11.75C39.0193 11.3367 38.9059 10.8867 38.9059 10.4C38.9059 9.90667 39.0193 9.45333 39.2459 9.04C39.4726 8.62667 39.7893 8.29667 40.1959 8.05C40.6026 7.80333 41.0793 7.68 41.6259 7.68C42.1726 7.68 42.6459 7.80667 43.0459 8.06C43.4459 8.30667 43.7526 8.63333 43.9659 9.04C44.1859 9.44667 44.2959 9.88333 44.2959 10.35C44.2959 10.5167 44.2859 10.65 44.2659 10.75H40.0759C40.0959 11.0567 40.1793 11.3267 40.3259 11.56C40.4793 11.7867 40.6693 11.9667 40.8959 12.1C41.1293 12.2267 41.3826 12.29 41.6559 12.29C41.9493 12.29 42.2259 12.2167 42.4859 12.07C42.7459 11.9233 42.9259 11.73 43.0259 11.49L43.9659 11.76C43.7859 12.1533 43.4859 12.4767 43.0659 12.73C42.6526 12.9767 42.1693 13.1 41.6159 13.1ZM40.0459 10.02H43.2059C43.1793 9.72 43.0926 9.45667 42.9459 9.23C42.7993 8.99667 42.6093 8.81667 42.3759 8.69C42.1493 8.55667 41.8959 8.49 41.6159 8.49C41.3426 8.49 41.0893 8.55667 40.8559 8.69C40.6293 8.81667 40.4426 8.99667 40.2959 9.23C40.1493 9.45667 40.0659 9.72 40.0459 10.02ZM45.1932 13V7.77H46.2932V9.85H48.7232V7.77H49.8232V13H48.7232V10.8H46.2932V13H45.1932ZM50.6502 14.25V12.03H50.7702C50.9569 12.03 51.1236 11.9567 51.2702 11.81C51.4236 11.6633 51.5469 11.3967 51.6402 11.01C51.7402 10.6233 51.8002 10.07 51.8202 9.35L51.8802 7.77H55.6102V12.03H56.3302V14.25H55.3602V13H51.6102V14.25H50.6502ZM52.2202 12.03H54.5102V8.72H52.8502L52.8202 9.45C52.7869 10.2167 52.7202 10.8 52.6202 11.2C52.5269 11.6 52.3936 11.8767 52.2202 12.03ZM57.9735 15.22C57.8468 15.22 57.7168 15.2033 57.5835 15.17C57.4568 15.1367 57.3202 15.0867 57.1735 15.02L57.4535 14.2C57.6068 14.28 57.7502 14.32 57.8835 14.32C58.2235 14.32 58.4968 14.0467 58.7035 13.5L58.9035 12.96L56.6935 7.77H57.8435L59.4435 11.88L60.8635 7.77H61.9235L59.6235 13.8C59.4502 14.2667 59.2168 14.62 58.9235 14.86C58.6368 15.1 58.3202 15.22 57.9735 15.22ZM64.9265 13.1C64.3865 13.1 63.9132 12.9767 63.5065 12.73C63.0998 12.4833 62.7832 12.1567 62.5565 11.75C62.3298 11.3367 62.2165 10.8867 62.2165 10.4C62.2165 9.90667 62.3298 9.45333 62.5565 9.04C62.7832 8.62667 63.0998 8.29667 63.5065 8.05C63.9132 7.80333 64.3898 7.68 64.9365 7.68C65.4832 7.68 65.9565 7.80667 66.3565 8.06C66.7565 8.30667 67.0632 8.63333 67.2765 9.04C67.4965 9.44667 67.6065 9.88333 67.6065 10.35C67.6065 10.5167 67.5965 10.65 67.5765 10.75H63.3865C63.4065 11.0567 63.4898 11.3267 63.6365 11.56C63.7898 11.7867 63.9798 11.9667 64.2065 12.1C64.4398 12.2267 64.6932 12.29 64.9665 12.29C65.2598 12.29 65.5365 12.2167 65.7965 12.07C66.0565 11.9233 66.2365 11.73 66.3365 11.49L67.2765 11.76C67.0965 12.1533 66.7965 12.4767 66.3765 12.73C65.9632 12.9767 65.4798 13.1 64.9265 13.1ZM63.3565 10.02H66.5165C66.4898 9.72 66.4032 9.45667 66.2565 9.23C66.1098 8.99667 65.9198 8.81667 65.6865 8.69C65.4598 8.55667 65.2065 8.49 64.9265 8.49C64.6532 8.49 64.3998 8.55667 64.1665 8.69C63.9398 8.81667 63.7532 8.99667 63.6065 9.23C63.4598 9.45667 63.3765 9.72 63.3565 10.02ZM68.5037 13V7.77H69.6438L71.4438 11L73.2538 7.77H74.3738V13H73.3238V9.32L71.7838 12.07H71.0938L69.5438 9.32V13H68.5037Z" fill="white"/>
<path d="M73 28V19H84L73 28Z" fill="#222222"/>
</svg>
