<svg width="71" height="28" viewBox="0 0 71 28" fill="none" xmlns="http://www.w3.org/2000/svg">
<rect width="71" height="19" fill="#69A042"/>
<path d="M12.47 12.01V13H8.65V12.01H10.07V8.52C9.99667 8.62 9.86333 8.73 9.67 8.85C9.47667 8.97 9.26667 9.07 9.04 9.15C8.82 9.23 8.62333 9.27 8.45 9.27V8.24C8.58333 8.24 8.73667 8.2 8.91 8.12C9.08333 8.04 9.25333 7.94667 9.42 7.84C9.59333 7.72667 9.74 7.62 9.86 7.52C9.98 7.41333 10.05 7.33667 10.07 7.29H11.2V12.01H12.47ZM15.327 14.49C14.8204 14.49 14.3604 14.3733 13.947 14.14C13.5337 13.9133 13.2237 13.6033 13.017 13.21L13.677 12.58C13.8637 12.86 14.1037 13.0867 14.397 13.26C14.6904 13.4333 15.0037 13.52 15.337 13.52C15.7437 13.52 16.0804 13.39 16.347 13.13C16.6204 12.8767 16.757 12.5433 16.757 12.13C16.757 11.73 16.627 11.4067 16.367 11.16C16.1137 10.9133 15.7937 10.79 15.407 10.79C15.1537 10.79 14.917 10.8467 14.697 10.96C14.477 11.0733 14.297 11.2333 14.157 11.44H13.187L13.997 7.29H17.467V8.3H14.797L14.437 10.24C14.5504 10.1133 14.7037 10.0133 14.897 9.94C15.0904 9.86667 15.3104 9.83 15.557 9.83C15.997 9.83 16.3937 9.92667 16.747 10.12C17.1004 10.3133 17.377 10.5833 17.577 10.93C17.7837 11.27 17.887 11.6633 17.887 12.11C17.887 12.5833 17.7737 12.9967 17.547 13.35C17.3204 13.71 17.0137 13.99 16.627 14.19C16.2404 14.39 15.807 14.49 15.327 14.49ZM20.1648 8.77C19.8715 8.77 19.6048 8.70333 19.3648 8.57C19.1248 8.43667 18.9315 8.26 18.7848 8.04C18.6448 7.81333 18.5748 7.56333 18.5748 7.29C18.5748 7.01 18.6448 6.76 18.7848 6.54C18.9315 6.31333 19.1248 6.13333 19.3648 6C19.6048 5.86667 19.8715 5.8 20.1648 5.8C20.4648 5.8 20.7348 5.86667 20.9748 6C21.2148 6.13333 21.4048 6.31333 21.5448 6.54C21.6848 6.76 21.7548 7.01 21.7548 7.29C21.7548 7.56333 21.6848 7.81333 21.5448 8.04C21.4048 8.26 21.2148 8.43667 20.9748 8.57C20.7348 8.70333 20.4648 8.77 20.1648 8.77ZM19.0248 12.6L21.8348 9.27L24.4748 5.84L24.9948 6.29L22.2348 9.58L19.5348 13.06L19.0248 12.6ZM20.1648 8.2C20.3915 8.2 20.5815 8.11 20.7348 7.93C20.8948 7.74333 20.9748 7.53 20.9748 7.29C20.9748 7.03667 20.8948 6.82 20.7348 6.64C20.5748 6.46 20.3848 6.37 20.1648 6.37C19.9448 6.37 19.7548 6.46333 19.5948 6.65C19.4348 6.83 19.3548 7.04333 19.3548 7.29C19.3548 7.53667 19.4348 7.75 19.5948 7.93C19.7548 8.11 19.9448 8.2 20.1648 8.2ZM23.8448 13.1C23.5515 13.1 23.2848 13.0333 23.0448 12.9C22.8048 12.7667 22.6115 12.59 22.4648 12.37C22.3248 12.1433 22.2548 11.89 22.2548 11.61C22.2548 11.3367 22.3248 11.09 22.4648 10.87C22.6115 10.6433 22.8048 10.4633 23.0448 10.33C23.2848 10.1967 23.5515 10.13 23.8448 10.13C24.1448 10.13 24.4148 10.1967 24.6548 10.33C24.8948 10.4633 25.0848 10.6433 25.2248 10.87C25.3648 11.09 25.4348 11.3367 25.4348 11.61C25.4348 11.89 25.3648 12.1433 25.2248 12.37C25.0848 12.59 24.8948 12.7667 24.6548 12.9C24.4148 13.0333 24.1448 13.1 23.8448 13.1ZM23.8448 12.53C24.0715 12.53 24.2615 12.44 24.4148 12.26C24.5748 12.08 24.6548 11.8633 24.6548 11.61C24.6548 11.3633 24.5748 11.15 24.4148 10.97C24.2548 10.79 24.0648 10.7 23.8448 10.7C23.6248 10.7 23.4348 10.7933 23.2748 10.98C23.1148 11.16 23.0348 11.37 23.0348 11.61C23.0348 11.8633 23.1148 12.08 23.2748 12.26C23.4348 12.44 23.6248 12.53 23.8448 12.53ZM31.2937 13.1C30.7537 13.1 30.2803 12.9767 29.8737 12.73C29.467 12.4767 29.1503 12.1433 28.9237 11.73C28.697 11.3167 28.5837 10.8667 28.5837 10.38C28.5837 9.89333 28.6937 9.44667 28.9137 9.04C29.1403 8.62667 29.4537 8.29667 29.8537 8.05C30.2603 7.80333 30.7403 7.68 31.2937 7.68C31.8337 7.68 32.297 7.8 32.6837 8.04C33.077 8.27333 33.3703 8.58667 33.5637 8.98L32.4937 9.32C32.3737 9.1 32.2037 8.93 31.9837 8.81C31.7703 8.68333 31.5337 8.62 31.2737 8.62C30.9803 8.62 30.7137 8.69667 30.4737 8.85C30.2403 8.99667 30.0537 9.20333 29.9137 9.47C29.7803 9.73667 29.7137 10.04 29.7137 10.38C29.7137 10.72 29.7837 11.0233 29.9237 11.29C30.0703 11.5567 30.2603 11.77 30.4937 11.93C30.7337 12.0833 30.997 12.16 31.2837 12.16C31.5503 12.16 31.8037 12.09 32.0437 11.95C32.2837 11.81 32.4437 11.64 32.5237 11.44L33.6037 11.76C33.4303 12.1533 33.1403 12.4767 32.7337 12.73C32.327 12.9767 31.847 13.1 31.2937 13.1ZM34.5096 13V7.77H35.5996V9.84H36.1196L37.6596 7.77H38.8796L36.9696 10.3L39.0996 13H37.8296L36.1096 10.83H35.5996V13H34.5096ZM39.9393 13V7.78H41.0393V11.53L43.6893 7.77H44.6893V13H43.5893V9.33L40.9693 13H39.9393ZM45.5038 14.25V12.03H45.6238C45.8104 12.03 45.9771 11.9567 46.1238 11.81C46.2771 11.6633 46.4004 11.3967 46.4938 11.01C46.5938 10.6233 46.6538 10.07 46.6738 9.35L46.7338 7.77H50.4638V12.03H51.1838V14.25H50.2138V13H46.4638V14.25H45.5038ZM47.0738 12.03H49.3638V8.72H47.7038L47.6738 9.45C47.6404 10.2167 47.5738 10.8 47.4738 11.2C47.3804 11.6 47.2471 11.8767 47.0738 12.03ZM52.117 13V7.77H53.207V9.84H53.727L55.267 7.77H56.487L54.577 10.3L56.707 13H55.437L53.717 10.83H53.207V13H52.117ZM57.1472 11.47C57.1472 11.1367 57.2405 10.8467 57.4272 10.6C57.6139 10.3467 57.8739 10.1533 58.2072 10.02C58.5472 9.88 58.9372 9.81 59.3772 9.81C59.6105 9.81 59.8472 9.83 60.0872 9.87C60.3339 9.90333 60.5505 9.95333 60.7372 10.02V9.69C60.7372 9.32333 60.6272 9.03667 60.4072 8.83C60.1872 8.62333 59.8705 8.52 59.4572 8.52C59.1705 8.52 58.8939 8.57 58.6272 8.67C58.3605 8.77 58.0839 8.91667 57.7972 9.11L57.4272 8.37C57.7739 8.14333 58.1205 7.97333 58.4672 7.86C58.8205 7.74 59.1905 7.68 59.5772 7.68C60.2772 7.68 60.8272 7.86667 61.2272 8.24C61.6339 8.60667 61.8372 9.13 61.8372 9.81V11.76C61.8372 11.8867 61.8572 11.9767 61.8972 12.03C61.9439 12.0833 62.0205 12.1133 62.1272 12.12V13C62.0272 13.02 61.9372 13.0333 61.8572 13.04C61.7772 13.0467 61.7105 13.05 61.6572 13.05C61.4172 13.05 61.2372 12.9933 61.1172 12.88C61.0039 12.76 60.9372 12.6267 60.9172 12.48L60.8872 12.18C60.6605 12.4733 60.3705 12.7 60.0172 12.86C59.6639 13.02 59.3072 13.1 58.9472 13.1C58.6005 13.1 58.2905 13.03 58.0172 12.89C57.7439 12.7433 57.5305 12.5467 57.3772 12.3C57.2239 12.0533 57.1472 11.7767 57.1472 11.47ZM60.4772 11.79C60.6505 11.6167 60.7372 11.4533 60.7372 11.3V10.7C60.3439 10.5533 59.9439 10.48 59.5372 10.48C59.1372 10.48 58.8105 10.5633 58.5572 10.73C58.3105 10.89 58.1872 11.1067 58.1872 11.38C58.1872 11.6067 58.2772 11.8167 58.4572 12.01C58.6439 12.1967 58.9105 12.29 59.2572 12.29C59.4905 12.29 59.7172 12.2433 59.9372 12.15C60.1572 12.0567 60.3372 11.9367 60.4772 11.79Z" fill="white"/>
<path d="M60 28V19H71L60 28Z" fill="#1C6031"/>
</svg>
