<svg width="32" height="32" viewBox="0 0 32 32" fill="none" xmlns="http://www.w3.org/2000/svg">
<path d="M16 32C24.8366 32 32 24.8366 32 16C32 7.16344 24.8366 0 16 0C7.16344 0 0 7.16344 0 16C0 24.8366 7.16344 32 16 32Z" fill="#039BE5"/>
<path d="M7.32168 15.6531L22.7484 9.70512C23.4644 9.44645 24.0897 9.87979 23.8577 10.9625L23.859 10.9611L21.2323 23.3358C21.0377 24.2131 20.5164 24.4265 19.787 24.0131L15.787 21.0651L13.8577 22.9238C13.6443 23.1371 13.4644 23.3171 13.051 23.3171L13.335 19.2465L20.7484 12.5491C21.071 12.2651 20.6763 12.1051 20.251 12.3878L11.0897 18.1558L7.14035 16.9238C6.28302 16.6518 6.26435 16.0665 7.32168 15.6531Z" fill="white"/>
</svg>
