<svg width="1920" height="790" viewBox="0 0 1920 790" fill="none" xmlns="http://www.w3.org/2000/svg">
<path d="M1920 776.647C1876.49 785.969 1743.37 799.019 1558.96 776.647C1328.45 748.682 1168.29 664.288 730.415 681.767C380.112 695.749 97.5121 518.748 0 451M1920 768.647C1876.49 777.969 1743.37 791.019 1558.96 768.647C1328.45 740.682 1168.29 656.288 730.415 673.767C380.112 687.749 97.5121 468.748 0 401M1920 760.647C1876.49 769.969 1743.37 783.019 1558.96 760.647C1328.45 732.682 1168.29 648.288 730.415 665.767C380.112 679.749 97.5121 418.748 0 351M1920 752.647C1876.49 761.969 1743.37 775.019 1558.96 752.647C1328.45 724.682 1168.29 640.288 730.415 657.767C380.112 671.749 97.5121 368.748 0 301M1920 744.647C1876.49 753.969 1743.37 767.019 1558.96 744.647C1328.45 716.682 1168.29 632.288 730.415 649.767C380.112 663.749 97.5121 318.748 0 251M1920 736.647C1876.49 745.969 1743.37 759.019 1558.96 736.647C1328.45 708.682 1168.29 624.288 730.415 641.767C380.112 655.749 97.5121 268.748 0 201M1920 728.647C1876.49 737.969 1743.37 751.019 1558.96 728.647C1328.45 700.682 1168.29 616.288 730.415 633.767C380.112 647.749 97.5121 218.748 0 151M1920 720.647C1876.49 729.969 1743.37 743.019 1558.96 720.647C1328.45 692.682 1168.29 608.288 730.415 625.767C380.112 639.749 97.5121 168.748 0 101M1920 712.647C1876.49 721.969 1743.37 735.019 1558.96 712.647C1328.45 684.682 1168.29 600.288 730.415 617.767C380.112 631.749 97.5121 118.748 0 51M1920 704.647C1876.49 713.969 1743.37 727.019 1558.96 704.647C1328.45 676.682 1168.29 592.288 730.415 609.767C380.112 623.749 97.5121 68.7482 0 1" stroke="white"/>
</svg>
