<svg width="32" height="32" viewBox="0 0 32 32" fill="none" xmlns="http://www.w3.org/2000/svg">
<rect width="32" height="32" rx="16" fill="#5181B8"/>
<path fill-rule="evenodd" clip-rule="evenodd" d="M26.1769 11.0232C26.3252 10.5287 26.1769 10.1653 25.471 10.1653H23.1372C22.5437 10.1653 22.2703 10.4792 22.1219 10.8254C22.1219 10.8254 20.935 13.7183 19.2536 15.5974C18.7096 16.1413 18.4624 16.3142 18.1657 16.3142C18.0173 16.3142 17.8026 16.1413 17.8026 15.6469V11.0232C17.8026 10.4297 17.6304 10.1653 17.1358 10.1653H13.4682C13.0975 10.1653 12.8744 10.4407 12.8744 10.7017C12.8744 11.2644 13.715 11.3941 13.8017 12.9764V16.4134C13.8017 17.1669 13.6656 17.3036 13.3689 17.3036C12.5777 17.3036 10.6532 14.3976 9.51165 11.0727C9.28793 10.4263 9.06355 10.1653 8.46707 10.1653H6.13319C5.46637 10.1653 5.33301 10.4792 5.33301 10.8254C5.33301 11.4436 6.12436 14.5096 9.0172 18.5646C10.946 21.3336 13.663 22.8349 16.1355 22.8349C17.6192 22.8349 17.8026 22.5015 17.8026 21.9272V19.8342C17.8026 19.1674 17.9431 19.0344 18.4127 19.0344C18.7591 19.0344 19.3524 19.2074 20.7373 20.5425C22.3196 22.1247 22.5804 22.8349 23.4706 22.8349H25.8045C26.4713 22.8349 26.8047 22.5015 26.6123 21.8435C26.4019 21.1877 25.6464 20.2365 24.6439 19.1085C24.0999 18.4656 23.2839 17.7732 23.0368 17.4271C22.6906 16.982 22.7894 16.7843 23.0368 16.3889C23.0368 16.3889 25.8801 12.3833 26.1769 11.0233V11.0232Z" fill="white"/>
</svg>
