<svg width="77" height="73" viewBox="0 0 77 73" fill="none" xmlns="http://www.w3.org/2000/svg">
<g clip-path="url(#clip0)">
<path d="M11.2852 25.1372H66.0309V62.8959H11.2852V25.1372Z" fill="#95A5A5"/>
<path d="M61.0684 27.3398H70.3614V60.2743H61.0684V27.3398Z" fill="#D1D4D1"/>
<path d="M15.9318 59.6878H6.63867V28.4927H15.9318V59.6878Z" fill="#D1D4D1"/>
<path d="M58.4141 24.5078H73.0172V27.6546C73.0172 29.0447 71.8288 30.1714 70.3625 30.1714H61.0694C59.6025 30.1714 58.4141 29.0447 58.4141 27.6546V24.5078Z" fill="#BDC3C7"/>
<path d="M61.0694 57.8613H70.3625C71.8288 57.8613 73.0172 58.9886 73.0172 60.3787V63.5255H58.4141V60.3787C58.4141 58.9886 59.6025 57.8613 61.0694 57.8613Z" fill="#BDC3C7"/>
<path d="M15.9303 30.1714H6.63717C5.17086 30.1714 3.98242 29.0447 3.98242 27.6546V24.5078H18.5856V27.6546C18.5856 29.0447 17.3971 30.1714 15.9303 30.1714Z" fill="#BDC3C7"/>
<path d="M18.5856 63.5255H3.98242V60.3787C3.98242 58.9886 5.17086 57.8613 6.63717 57.8613H15.9303C17.3971 57.8613 18.5856 58.9886 18.5856 60.3787V63.5255Z" fill="#BDC3C7"/>
<path d="M2.65625 18.4668H75.6733V23.8786C75.6733 24.5737 75.0787 25.1373 74.3456 25.1373H3.98392C3.25076 25.1373 2.65625 24.5737 2.65625 23.8786V18.4668Z" fill="#285680"/>
<path d="M3.98392 62.896H74.3456C75.0787 62.896 75.6733 63.4596 75.6733 64.1547V70.4476H2.65625V64.1547C2.65625 63.4596 3.25076 62.896 3.98392 62.896Z" fill="#285680"/>
<path d="M75.6723 20.1031H1.32767C0.594514 20.1031 6.86384e-07 19.5395 6.86384e-07 18.8444V12.2201C-0.000586777 11.6698 0.375977 11.1831 0.929368 11.0182L37.3198 0.312586C38.0888 0.0859089 38.9112 0.0859089 39.6802 0.312586L76.0706 11.0182C76.624 11.1831 77.0006 11.6698 77 12.2201V18.8444C77 19.5395 76.4055 20.1031 75.6723 20.1031Z" fill="#4482C3"/>
<path d="M5.31055 15.0683V15.0014L38.1022 5.3518C38.3583 5.27661 38.6321 5.27661 38.8882 5.3518L71.6904 15.0014V15.0683H5.31055Z" fill="#285680"/>
<path d="M53.1028 44.0165C53.1028 51.6628 46.5649 57.8611 38.4997 57.8611C30.4344 57.8611 23.8965 51.6628 23.8965 44.0165C23.8965 36.3702 30.4344 30.1714 38.4997 30.1714C46.5649 30.1714 53.1028 36.3702 53.1028 44.0165Z" fill="#7ED09E"/>
<path d="M38.4995 45.2751C35.5669 45.2751 33.1895 43.0211 33.1895 40.2403C33.1895 37.46 35.5669 35.2061 38.4995 35.2061C41.4322 35.2061 43.8096 37.46 43.8096 40.2403C43.8096 40.9354 43.2157 41.499 42.4825 41.499C41.7494 41.499 41.1549 40.9354 41.1549 40.2403C41.1549 38.8501 39.9658 37.7234 38.4995 37.7234C37.0332 37.7234 35.8442 38.8501 35.8442 40.2403C35.8442 41.631 37.0332 42.7577 38.4995 42.7577C39.2327 42.7577 39.8272 43.3213 39.8272 44.0164C39.8272 44.7114 39.2327 45.2751 38.4995 45.2751Z" fill="#24AE5F"/>
<path d="M38.4995 52.8268C35.5669 52.8268 33.1895 50.5729 33.1895 47.7926C33.1895 47.097 33.7834 46.5339 34.5165 46.5339C35.2503 46.5339 35.8442 47.097 35.8442 47.7926C35.8442 49.1827 37.0332 50.3094 38.4995 50.3094C39.9658 50.3094 41.1549 49.1827 41.1549 47.7926C41.1549 46.4019 39.9658 45.2752 38.4995 45.2752C37.7664 45.2752 37.1719 44.7116 37.1719 44.0165C37.1719 43.3214 37.7664 42.7578 38.4995 42.7578C41.4322 42.7578 43.8096 45.0118 43.8096 47.7926C43.8096 50.5729 41.4322 52.8268 38.4995 52.8268Z" fill="#24AE5F"/>
<path d="M38.4995 54.0853C37.7664 54.0853 37.1719 53.5217 37.1719 52.8266V35.206C37.1719 34.5109 37.7664 33.9473 38.4995 33.9473C39.2327 33.9473 39.8272 34.5109 39.8272 35.206V52.8266C39.8272 53.5217 39.2327 54.0853 38.4995 54.0853Z" fill="#24AE5F"/>
<path d="M1.32767 67.9302H75.6723C76.4055 67.9302 77 68.4938 77 69.1889V71.7063C77 72.4013 76.4055 72.965 75.6723 72.965H1.32767C0.594513 72.965 0 72.4013 0 71.7063V69.1889C0 68.4938 0.594513 67.9302 1.32767 67.9302Z" fill="#4482C3"/>
</g>
<defs>
<clipPath id="clip0">
<rect width="77" height="73" fill="white"/>
</clipPath>
</defs>
</svg>
