<svg width="24" height="24" viewBox="0 0 24 24" fill="none" xmlns="http://www.w3.org/2000/svg">
<path d="M12 24C11.4185 24 10.9453 23.5268 10.9453 22.9453C10.9453 22.9266 10.9458 22.908 10.9468 22.8896L5.04413 20.4447C4.85095 20.6592 4.5712 20.7942 4.26047 20.7942C3.67894 20.7942 3.20578 20.3211 3.20578 19.7395C3.20578 19.158 3.67894 18.6848 4.26047 18.6848C4.842 18.6848 5.31516 19.158 5.31516 19.7395C5.31516 19.7582 5.31464 19.7768 5.3137 19.7953L11.2163 22.2402C11.4095 22.0257 11.6893 21.8906 12 21.8906C12.3107 21.8906 12.5905 22.0257 12.7837 22.2402L18.6863 19.7953C18.6853 19.7768 18.6848 19.7582 18.6848 19.7395C18.6848 19.158 19.158 18.6848 19.7395 18.6848C20.3211 18.6848 20.7942 19.158 20.7942 19.7395C20.7942 20.3211 20.3211 20.7942 19.7395 20.7942C19.4288 20.7942 19.149 20.6592 18.9559 20.4447L13.0532 22.8896C13.0542 22.9081 13.0547 22.9266 13.0547 22.9453C13.0547 23.5268 12.5815 24 12 24ZM12 22.5938C11.8061 22.5938 11.6484 22.7514 11.6484 22.9453C11.6484 23.1392 11.8061 23.2969 12 23.2969C12.1939 23.2969 12.3516 23.1392 12.3516 22.9453C12.3516 22.7514 12.1939 22.5938 12 22.5938ZM19.7395 19.3879C19.5456 19.3879 19.3879 19.5456 19.3879 19.7395C19.3879 19.9334 19.5456 20.091 19.7395 20.091C19.9334 20.091 20.091 19.9334 20.091 19.7395C20.091 19.5456 19.9334 19.3879 19.7395 19.3879ZM4.26052 19.3879C4.06664 19.3879 3.90895 19.5456 3.90895 19.7395C3.90895 19.9334 4.06664 20.091 4.26052 20.091C4.45439 20.091 4.61208 19.9334 4.61208 19.7395C4.61208 19.5456 4.45434 19.3879 4.26052 19.3879ZM12 19.7812C7.70939 19.7812 4.21875 16.2906 4.21875 12C4.21875 7.70939 7.70939 4.21875 12 4.21875C13.521 4.21875 14.9945 4.65769 16.2611 5.48817C16.4235 5.59462 16.4688 5.81259 16.3624 5.97497C16.2559 6.13739 16.0379 6.18263 15.8756 6.07622C15.4784 5.81578 15.0588 5.59772 14.6227 5.42372C14.9381 5.74411 15.232 6.1253 15.4988 6.56358C15.6649 6.83639 15.8171 7.12598 15.9548 7.42969H17.4065C17.2321 7.22456 17.0449 7.02783 16.8453 6.84023C16.7037 6.7073 16.6968 6.48483 16.8298 6.34331C16.9627 6.2017 17.1852 6.19481 17.3267 6.3278C18.8866 7.79316 19.7812 9.86058 19.7812 12C19.7812 16.2906 16.2906 19.7812 12 19.7812ZM12.3516 16.5703V19.0529C13.3025 18.9157 14.1961 18.224 14.8983 17.0707C14.9961 16.9101 15.0886 16.7432 15.1758 16.5703H12.3516ZM8.82422 16.5703C8.91136 16.7432 9.00389 16.9101 9.10172 17.0707C9.80386 18.2241 10.6975 18.9157 11.6484 19.0529V16.5703H8.82422ZM15.9548 16.5703C15.8172 16.874 15.665 17.1636 15.4988 17.4364C15.2328 17.8733 14.94 18.2535 14.6257 18.5733C15.7075 18.1395 16.6587 17.4458 17.4007 16.5704H15.9548V16.5703ZM6.5992 16.5703C7.34128 17.4458 8.29247 18.1395 9.37425 18.5732C9.06 18.2535 8.76713 17.8733 8.50111 17.4364C8.33498 17.1636 8.18278 16.874 8.04516 16.5703H6.5992V16.5703ZM16.2384 15.8672H17.9259C18.594 14.8468 19.0059 13.6441 19.0695 12.3516H16.8702C16.8359 13.6032 16.6182 14.8029 16.2384 15.8672ZM12.3516 15.8672H15.4885C15.8959 14.8224 16.1302 13.618 16.1669 12.3516H12.3516V15.8672ZM8.51152 15.8672H11.6484V12.3516H7.83314C7.8698 13.618 8.10408 14.8224 8.51152 15.8672ZM6.07411 15.8672H7.76161C7.38178 14.8029 7.16414 13.6032 7.12978 12.3516H4.9305C4.99406 13.6441 5.406 14.8468 6.07411 15.8672ZM16.8702 11.6484H19.0697C19.0086 10.3771 18.6164 9.17442 17.9332 8.13281H16.2384C16.6182 9.19706 16.8359 10.3968 16.8702 11.6484ZM12.3516 11.6484H16.1669C16.1303 10.382 15.896 9.17761 15.4885 8.13281H12.3516V8.95312C12.3516 9.14733 12.1942 9.30469 12 9.30469C11.8058 9.30469 11.6484 9.14733 11.6484 8.95312V8.13281H8.51152C8.10408 9.17761 7.8698 10.382 7.83314 11.6484H11.6484V10.3594C11.6484 10.1652 11.8058 10.0078 12 10.0078C12.1942 10.0078 12.3516 10.1652 12.3516 10.3594V11.6484ZM4.9305 11.6484H7.12978C7.16414 10.3968 7.38183 9.19706 7.76161 8.13281H6.07411C5.406 9.15319 4.99406 10.3559 4.9305 11.6484ZM12.3516 7.42969H15.1758C15.0886 7.25681 14.9961 7.08989 14.8983 6.92925C14.1961 5.77594 13.3025 5.0843 12.3516 4.94714V7.42969ZM8.82422 7.42969H11.6484V4.94714C10.6975 5.0843 9.80386 5.77598 9.10172 6.92925C9.00389 7.08989 8.91136 7.25681 8.82422 7.42969ZM6.5992 7.42969H8.0452C8.18283 7.12598 8.33503 6.83644 8.50116 6.56358C8.76717 6.1267 9.06005 5.74645 9.3743 5.42672C8.29247 5.86045 7.34128 6.55416 6.5992 7.42969ZM20.4974 18.2612C20.4525 18.2612 20.4069 18.2526 20.363 18.2343C20.1836 18.16 20.0984 17.9544 20.1727 17.775L22.2401 12.7837C22.0257 12.5905 21.8906 12.3107 21.8906 12C21.8906 11.6893 22.0257 11.4095 22.2402 11.2163L19.7953 5.3137C19.7768 5.31469 19.7582 5.31516 19.7395 5.31516C19.158 5.31516 18.6848 4.842 18.6848 4.26047C18.6848 3.67894 19.158 3.20578 19.7395 3.20578C20.3211 3.20578 20.7942 3.67894 20.7942 4.26047C20.7942 4.5712 20.6592 4.85095 20.4447 5.04413L22.8896 10.9468C22.9081 10.9458 22.9266 10.9453 22.9453 10.9453C23.5268 10.9453 24 11.4185 24 12C24 12.5815 23.5268 13.0547 22.9453 13.0547C22.9266 13.0547 22.908 13.0542 22.8896 13.0532L20.8223 18.0441C20.7662 18.1794 20.6353 18.2612 20.4974 18.2612ZM22.9453 11.6484C22.7514 11.6484 22.5938 11.8061 22.5938 12C22.5938 12.1939 22.7514 12.3516 22.9453 12.3516C23.1392 12.3516 23.2969 12.1939 23.2969 12C23.2969 11.8061 23.1392 11.6484 22.9453 11.6484ZM19.7395 3.90895C19.5456 3.90895 19.3879 4.06664 19.3879 4.26052C19.3879 4.45439 19.5456 4.61208 19.7395 4.61208C19.9334 4.61208 20.091 4.45439 20.091 4.26052C20.091 4.06664 19.9334 3.90895 19.7395 3.90895ZM3.50264 18.2612C3.36469 18.2612 3.23381 18.1795 3.1777 18.0441L1.11042 13.0532C1.09191 13.0542 1.07339 13.0547 1.05469 13.0547C0.473156 13.0547 0 12.5815 0 12C0 11.4185 0.473156 10.9453 1.05469 10.9453C1.07339 10.9453 1.09195 10.9458 1.11042 10.9468L3.55533 5.04413C3.34083 4.85095 3.20578 4.5712 3.20578 4.26047C3.20578 3.67894 3.67894 3.20578 4.26047 3.20578C4.5712 3.20578 4.85095 3.34083 5.04413 3.55533L10.9468 1.11042C10.9458 1.09191 10.9453 1.07339 10.9453 1.05469C10.9453 0.473156 11.4185 0 12 0C12.5815 0 13.0547 0.473156 13.0547 1.05469C13.0547 1.07339 13.0542 1.09195 13.0532 1.11042L18.051 3.18056C18.2304 3.25486 18.3156 3.4605 18.2413 3.63989C18.167 3.81928 17.9613 3.90459 17.7819 3.83016L12.7837 1.75983C12.5905 1.97428 12.3107 2.10938 12 2.10938C11.6893 2.10938 11.4095 1.97433 11.2163 1.75983L5.3137 4.20473C5.31469 4.22325 5.31516 4.24177 5.31516 4.26047C5.31516 4.842 4.842 5.31516 4.26047 5.31516C4.24177 5.31516 4.2232 5.31464 4.20473 5.3137L1.75983 11.2163C1.97433 11.4095 2.10938 11.6893 2.10938 12C2.10938 12.3107 1.97433 12.5905 1.75983 12.7837L3.82725 17.775C3.90159 17.9544 3.81642 18.16 3.63698 18.2343C3.59302 18.2526 3.54745 18.2612 3.50264 18.2612ZM1.05469 11.6484C0.860812 11.6484 0.703125 11.8061 0.703125 12C0.703125 12.1939 0.860812 12.3516 1.05469 12.3516C1.24856 12.3516 1.40625 12.1939 1.40625 12C1.40625 11.8061 1.24856 11.6484 1.05469 11.6484ZM4.26052 3.90895C4.06664 3.90895 3.90895 4.06664 3.90895 4.26052C3.90895 4.45439 4.06664 4.61208 4.26052 4.61208C4.45439 4.61208 4.61208 4.45439 4.61208 4.26052C4.61208 4.06664 4.45434 3.90895 4.26052 3.90895ZM12 0.703125C11.8061 0.703125 11.6484 0.860812 11.6484 1.05469C11.6484 1.24856 11.8061 1.40625 12 1.40625C12.1939 1.40625 12.3516 1.24856 12.3516 1.05469C12.3516 0.860812 12.1939 0.703125 12 0.703125Z" fill="#222222"/>
</svg>
