<svg width="22" height="23" viewBox="0 0 22 23" fill="none" xmlns="http://www.w3.org/2000/svg">
<path d="M6 21.9245H3C2.46957 21.9245 1.96086 21.7138 1.58579 21.3387C1.21071 20.9636 1 20.4549 1 19.9245V12.9245C1 12.394 1.21071 11.8853 1.58579 11.5103C1.96086 11.1352 2.46957 10.9245 3 10.9245H6M13 8.92447V4.92447C13 4.12882 12.6839 3.36576 12.1213 2.80315C11.5587 2.24054 10.7956 1.92447 10 1.92447L6 10.9245V21.9245H17.28C17.7623 21.9299 18.2304 21.7609 18.5979 21.4485C18.9654 21.1361 19.2077 20.7014 19.28 20.2245L20.66 11.2245C20.7035 10.9378 20.6842 10.6452 20.6033 10.3667C20.5225 10.0883 20.3821 9.83076 20.1919 9.61198C20.0016 9.3932 19.7661 9.2184 19.5016 9.09969C19.2371 8.98097 18.9499 8.92119 18.66 8.92447H13Z" stroke="white" stroke-width="2" stroke-linecap="round" stroke-linejoin="round"/>
</svg>
