<svg width="24" height="24" viewBox="0 0 24 24" fill="none" xmlns="http://www.w3.org/2000/svg">
<path d="M9.98645 19.2897C10.3976 19.8058 11.0014 20.1398 11.6642 20.2178C12.327 20.2958 12.9942 20.1113 13.518 19.7053C13.6791 19.5852 13.8241 19.4455 13.9495 19.2897M5.00068 13.4718V13.2914C5.02714 12.7579 5.19814 12.2409 5.49606 11.7938C5.99195 11.2567 6.33141 10.5986 6.47883 9.88845C6.47883 9.33958 6.47883 8.78288 6.52677 8.23401C6.77446 5.59162 9.38719 3.76468 11.968 3.76468H12.0319C14.6126 3.76468 17.2254 5.59162 17.481 8.23401C17.529 8.78288 17.481 9.33958 17.521 9.88845C17.6704 10.6002 18.0095 11.2604 18.5038 11.8016C18.8039 12.2448 18.9752 12.7598 18.9991 13.2914V13.4639C19.017 14.1808 18.7701 14.8797 18.304 15.432C17.6881 16.0777 16.8524 16.4794 15.955 16.5611C13.3234 16.8434 10.6684 16.8434 8.03688 16.5611C7.14048 16.4759 6.30592 16.0748 5.68782 15.432C5.22894 14.8793 4.98537 14.1845 5.00068 13.4718Z" stroke="#020A27" stroke-linecap="round" stroke-linejoin="round"/>
</svg>
