<svg width="22" height="23" viewBox="0 0 22 23" fill="none" xmlns="http://www.w3.org/2000/svg">
<path d="M20.9994 16.5759V19.6549C21.0005 19.9407 20.9435 20.2236 20.8319 20.4855C20.7203 20.7474 20.5567 20.9825 20.3515 21.1757C20.1462 21.369 19.904 21.5161 19.6401 21.6076C19.3763 21.6992 19.0968 21.7332 18.8194 21.7075C15.7422 21.3643 12.7864 20.2852 10.1894 18.5567C7.77325 16.981 5.72477 14.8786 4.18944 12.3988C2.49942 9.72136 1.44769 6.67299 1.11944 3.50065C1.09446 3.21684 1.12732 2.9308 1.21594 2.66074C1.30457 2.39068 1.44701 2.14252 1.63421 1.93205C1.8214 1.72159 2.04925 1.55343 2.30323 1.43829C2.55722 1.32315 2.83178 1.26355 3.10944 1.26328H6.10943C6.59473 1.25838 7.06522 1.43476 7.43319 1.75954C7.80116 2.08432 8.0415 2.53535 8.10942 3.02855C8.23605 4.01388 8.47087 4.98134 8.80942 5.91249C8.94396 6.27984 8.97308 6.67906 8.89333 7.06287C8.81357 7.44668 8.62829 7.79898 8.35942 8.07802L7.08943 9.38144C8.51298 11.9509 10.5859 14.0783 13.0894 15.5393L14.3594 14.2359C14.6313 13.96 14.9746 13.7698 15.3485 13.688C15.7225 13.6061 16.1115 13.636 16.4694 13.7741C17.3767 14.1215 18.3193 14.3625 19.2794 14.4925C19.7652 14.5628 20.2088 14.8139 20.5259 15.1981C20.843 15.5822 21.0116 16.0726 20.9994 16.5759Z" stroke="#69A042" stroke-width="2" stroke-linecap="round" stroke-linejoin="round"/>
</svg>
