<svg width="27" height="24" viewBox="0 0 27 24" fill="none" xmlns="http://www.w3.org/2000/svg">
<path d="M8.625 24H15.3743C16.4081 24 17.2493 23.1589 17.2493 22.125V20.6246V3.37538V1.875C17.2493 0.841125 16.4081 0 15.3743 0H8.625C7.59113 0 6.75 0.841125 6.75 1.875V3.37538V20.6246V22.125C6.75 23.1589 7.59113 24 8.625 24ZM15.3743 23.25H8.625C8.00475 23.25 7.5 22.7453 7.5 22.125V22.1152C7.81425 22.3534 8.20125 22.4996 8.625 22.4996H15.3743C15.798 22.4996 16.185 22.353 16.4993 22.1152V22.125C16.4993 22.7453 15.9945 23.25 15.3743 23.25ZM7.5 1.875C7.5 1.25475 8.00475 0.75 8.625 0.75H15.3743C15.9945 0.75 16.4993 1.25475 16.4993 1.875V3.37538V20.6246C16.4993 21.2449 15.9945 21.7496 15.3743 21.7496H8.625C8.00475 21.7496 7.5 21.2449 7.5 20.6246V3.37538V1.875Z" fill="white"/>
<path d="M14.6279 3.75C15.2482 3.75 15.7529 3.24525 15.7529 2.625C15.7529 2.00475 15.2482 1.5 14.6279 1.5C14.0077 1.5 13.5029 2.00475 13.5029 2.625C13.5029 3.24525 14.0073 3.75 14.6279 3.75ZM14.6279 2.25C14.8349 2.25 15.0029 2.418 15.0029 2.625C15.0029 2.832 14.8349 3 14.6279 3C14.4209 3 14.2529 2.832 14.2529 2.625C14.2529 2.418 14.4209 2.25 14.6279 2.25Z" fill="white"/>
<path d="M9.37598 17.6273C9.37598 17.8347 9.5436 18.0023 9.75098 18.0023H10.8748V19.1258C10.8748 19.3332 11.0425 19.5008 11.2498 19.5008H12.751C12.9583 19.5008 13.126 19.3332 13.126 19.1258V18.0023H14.2495C14.4568 18.0023 14.6245 17.8347 14.6245 17.6273V16.1258C14.6245 15.9184 14.4568 15.7508 14.2495 15.7508H13.126V14.6273C13.126 14.4199 12.9583 14.2523 12.751 14.2523H11.2498C11.0425 14.2523 10.8748 14.4199 10.8748 14.6273V15.7508H9.75098C9.5436 15.7508 9.37598 15.9184 9.37598 16.1258V17.6273ZM10.126 16.5008H11.2498C11.4572 16.5008 11.6248 16.3332 11.6248 16.1258V15.0023H12.376V16.1258C12.376 16.3332 12.5436 16.5008 12.751 16.5008H13.8745V17.2523H12.751C12.5436 17.2523 12.376 17.4199 12.376 17.6273V18.7508H11.6248V17.6273C11.6248 17.4199 11.4572 17.2523 11.2498 17.2523H10.126V16.5008Z" fill="white"/>
<path d="M9.01066 7.50151C9.21766 7.50151 9.38566 7.33389 9.38566 7.12651C9.38566 6.91914 9.21766 6.75151 9.01066 6.75151H9.00654C8.79954 6.75151 8.63379 6.91914 8.63379 7.12651C8.63379 7.33389 8.80366 7.50151 9.01066 7.50151Z" fill="white"/>
<path d="M10.5116 7.50151C10.7186 7.50151 10.8866 7.33389 10.8866 7.12651C10.8866 6.91914 10.7186 6.75151 10.5116 6.75151H10.5075C10.3005 6.75151 10.1348 6.91914 10.1348 7.12651C10.1348 7.33389 10.3046 7.50151 10.5116 7.50151Z" fill="white"/>
<path d="M12.0126 7.50151C12.2196 7.50151 12.3876 7.33389 12.3876 7.12651C12.3876 6.91914 12.2196 6.75151 12.0126 6.75151H12.0085C11.8015 6.75151 11.6357 6.91914 11.6357 7.12651C11.6357 7.33389 11.8052 7.50151 12.0126 7.50151Z" fill="white"/>
<path d="M13.5136 7.50151C13.7206 7.50151 13.8886 7.33389 13.8886 7.12651C13.8886 6.91914 13.7206 6.75151 13.5136 6.75151H13.5095C13.3025 6.75151 13.1367 6.91914 13.1367 7.12651C13.1367 7.33389 13.3062 7.50151 13.5136 7.50151Z" fill="white"/>
<path d="M15.0146 6.75151H15.0104C14.8034 6.75151 14.6377 6.91914 14.6377 7.12651C14.6377 7.33389 14.8072 7.50151 15.0146 7.50151C15.2216 7.50151 15.3896 7.33389 15.3896 7.12651C15.3896 6.91914 15.2216 6.75151 15.0146 6.75151Z" fill="white"/>
<path d="M9.01066 9.00151C9.21766 9.00151 9.38566 8.83389 9.38566 8.62651C9.38566 8.41914 9.21766 8.25151 9.01066 8.25151H9.00654C8.79954 8.25151 8.63379 8.41914 8.63379 8.62651C8.63379 8.83389 8.80366 9.00151 9.01066 9.00151Z" fill="white"/>
<path d="M10.5116 9.00151C10.7186 9.00151 10.8866 8.83389 10.8866 8.62651C10.8866 8.41914 10.7186 8.25151 10.5116 8.25151H10.5075C10.3005 8.25151 10.1348 8.41914 10.1348 8.62651C10.1348 8.83389 10.3046 9.00151 10.5116 9.00151Z" fill="white"/>
<path d="M12.0126 9.00151C12.2196 9.00151 12.3876 8.83389 12.3876 8.62651C12.3876 8.41914 12.2196 8.25151 12.0126 8.25151H12.0085C11.8015 8.25151 11.6357 8.41914 11.6357 8.62651C11.6357 8.83389 11.8052 9.00151 12.0126 9.00151Z" fill="white"/>
<path d="M13.5136 9.00151C13.7206 9.00151 13.8886 8.83389 13.8886 8.62651C13.8886 8.41914 13.7206 8.25151 13.5136 8.25151H13.5095C13.3025 8.25151 13.1367 8.41914 13.1367 8.62651C13.1367 8.83389 13.3062 9.00151 13.5136 9.00151Z" fill="white"/>
<path d="M15.0146 8.25151H15.0104C14.8034 8.25151 14.6377 8.41914 14.6377 8.62651C14.6377 8.83389 14.8072 9.00151 15.0146 9.00151C15.2216 9.00151 15.3896 8.83389 15.3896 8.62651C15.3896 8.41914 15.2216 8.25151 15.0146 8.25151Z" fill="white"/>
<path d="M9.01066 10.5015C9.21766 10.5015 9.38566 10.3339 9.38566 10.1265C9.38566 9.91914 9.21766 9.75151 9.01066 9.75151H9.00654C8.79954 9.75151 8.63379 9.91914 8.63379 10.1265C8.63379 10.3339 8.80366 10.5015 9.01066 10.5015Z" fill="white"/>
<path d="M10.5116 10.5015C10.7186 10.5015 10.8866 10.3339 10.8866 10.1265C10.8866 9.91914 10.7186 9.75151 10.5116 9.75151H10.5075C10.3005 9.75151 10.1348 9.91914 10.1348 10.1265C10.1348 10.3339 10.3046 10.5015 10.5116 10.5015Z" fill="white"/>
<path d="M12.0126 10.5015C12.2196 10.5015 12.3876 10.3339 12.3876 10.1265C12.3876 9.91914 12.2196 9.75151 12.0126 9.75151H12.0085C11.8015 9.75151 11.6357 9.91914 11.6357 10.1265C11.6357 10.3339 11.8052 10.5015 12.0126 10.5015Z" fill="white"/>
<path d="M13.5136 10.5015C13.7206 10.5015 13.8886 10.3339 13.8886 10.1265C13.8886 9.91914 13.7206 9.75151 13.5136 9.75151H13.5095C13.3025 9.75151 13.1367 9.91914 13.1367 10.1265C13.1367 10.3339 13.3062 10.5015 13.5136 10.5015Z" fill="white"/>
<path d="M15.0146 9.75151H15.0104C14.8034 9.75151 14.6377 9.91914 14.6377 10.1265C14.6377 10.3339 14.8072 10.5015 15.0146 10.5015C15.2216 10.5015 15.3896 10.3339 15.3896 10.1265C15.3896 9.91914 15.2216 9.75151 15.0146 9.75151Z" fill="white"/>
<path d="M9.01066 12.0015C9.21766 12.0015 9.38566 11.8339 9.38566 11.6265C9.38566 11.4191 9.21766 11.2515 9.01066 11.2515H9.00654C8.79954 11.2515 8.63379 11.4191 8.63379 11.6265C8.63379 11.8339 8.80366 12.0015 9.01066 12.0015Z" fill="white"/>
<path d="M10.5116 12.0015C10.7186 12.0015 10.8866 11.8339 10.8866 11.6265C10.8866 11.4191 10.7186 11.2515 10.5116 11.2515H10.5075C10.3005 11.2515 10.1348 11.4191 10.1348 11.6265C10.1348 11.8339 10.3046 12.0015 10.5116 12.0015Z" fill="white"/>
<path d="M12.0126 12.0015C12.2196 12.0015 12.3876 11.8339 12.3876 11.6265C12.3876 11.4191 12.2196 11.2515 12.0126 11.2515H12.0085C11.8015 11.2515 11.6357 11.4191 11.6357 11.6265C11.6357 11.8339 11.8052 12.0015 12.0126 12.0015Z" fill="white"/>
<path d="M13.5136 12.0015C13.7206 12.0015 13.8886 11.8339 13.8886 11.6265C13.8886 11.4191 13.7206 11.2515 13.5136 11.2515H13.5095C13.3025 11.2515 13.1367 11.4191 13.1367 11.6265C13.1367 11.8339 13.3062 12.0015 13.5136 12.0015Z" fill="white"/>
<path d="M15.0146 11.2515H15.0104C14.8034 11.2515 14.6377 11.4191 14.6377 11.6265C14.6377 11.8339 14.8072 12.0015 15.0146 12.0015C15.2216 12.0015 15.3896 11.8339 15.3896 11.6265C15.3896 11.4191 15.2216 11.2515 15.0146 11.2515Z" fill="white"/>
<path d="M9.01066 13.5015C9.21766 13.5015 9.38566 13.3339 9.38566 13.1265C9.38566 12.9192 9.21766 12.7515 9.01066 12.7515H9.00654C8.79954 12.7515 8.63379 12.9192 8.63379 13.1265C8.63379 13.3339 8.80366 13.5015 9.01066 13.5015Z" fill="white"/>
<path d="M15.0146 12.7515H15.0104C14.8034 12.7515 14.6377 12.9192 14.6377 13.1265C14.6377 13.3339 14.8072 13.5015 15.0146 13.5015C15.2216 13.5015 15.3896 13.3339 15.3896 13.1265C15.3896 12.9192 15.2216 12.7515 15.0146 12.7515Z" fill="white"/>
</svg>
