<svg width="56" height="56" viewBox="0 0 56 56" fill="none" xmlns="http://www.w3.org/2000/svg">
<g clip-path="url(#clip0)">
<path d="M52.9868 36.5264H49.595L48.6828 8.87271C48.6412 7.61074 47.6196 6.62231 46.3571 6.62231C45.0945 6.62231 44.0728 7.61085 44.0312 8.87271L43.119 36.5264H37.1708C36.7168 36.5264 36.3488 36.8945 36.3488 37.3484C36.3488 37.8023 36.7168 38.1703 37.1708 38.1703H52.9866C53.742 38.1703 54.3564 38.7848 54.3564 39.5401V46.3642C54.3564 47.1195 53.742 47.7341 52.9866 47.7341H18.4821C18.0281 47.7341 17.6602 48.102 17.6602 48.556C17.6602 49.0101 18.0281 49.378 18.4821 49.378H52.9869C54.6486 49.378 56.0006 48.026 56.0006 46.3643V39.5403C56.0005 37.8784 54.6485 36.5264 52.9868 36.5264ZM45.6743 8.92685C45.6865 8.55639 45.9864 8.26611 46.3572 8.26611C46.7279 8.26611 47.0278 8.55639 47.04 8.92685L47.9504 36.5264H44.7639L45.6743 8.92685Z" fill="#783294"/>
<path d="M15.1939 47.7341H3.01372C2.25838 47.7341 1.64391 47.1196 1.64391 46.3642V39.5401C1.64391 38.7848 2.25838 38.1703 3.01372 38.1703H33.8828C34.3369 38.1703 34.7048 37.8024 34.7048 37.3484C34.7048 36.8945 34.3369 36.5264 33.8828 36.5264H12.882L11.9698 8.87271C11.9281 7.61074 10.9065 6.62231 9.64403 6.62231C8.38141 6.62231 7.35973 7.61085 7.31817 8.87271L6.90309 21.4562C6.88811 21.9099 7.2438 22.2897 7.69748 22.3047C8.14877 22.3163 8.53103 21.964 8.54602 21.5103L8.96109 8.92685C8.97334 8.55639 9.27325 8.26611 9.64403 8.26611C10.0147 8.26611 10.3146 8.55639 10.3269 8.92685L11.2372 36.5264H8.05077L8.43762 24.7955C8.45261 24.3418 8.09692 23.962 7.64323 23.947C7.19009 23.9327 6.80958 24.2877 6.7947 24.7414L6.40598 36.5264H3.01372C1.35198 36.5264 0 37.8784 0 39.5401V46.3642C0 48.0259 1.35198 49.3779 3.01372 49.3779H15.1939C15.648 49.3779 16.0159 49.0098 16.0159 48.5559C16.0159 48.102 15.6478 47.7341 15.1939 47.7341Z" fill="#783294"/>
<path d="M6.37078 43.8801C5.91677 43.8801 5.54883 44.2482 5.54883 44.7021C5.54883 45.156 5.91677 45.524 6.37078 45.524H8.99644C9.45046 45.524 9.81839 45.156 9.81839 44.7021C9.81839 44.2482 9.45046 43.8801 8.99644 43.8801H6.37078Z" fill="#783294"/>
<path d="M15.1948 43.8801H12.569C12.115 43.8801 11.7471 44.2482 11.7471 44.7021C11.7471 45.156 12.115 45.524 12.569 45.524H15.1948C15.6488 45.524 16.0167 45.156 16.0167 44.7021C16.0166 44.2481 15.6487 43.8801 15.1948 43.8801Z" fill="#783294"/>
<path d="M18.7663 43.8801C18.3123 43.8801 17.9443 44.2482 17.9443 44.7021C17.9443 45.156 18.3123 45.524 18.7663 45.524H21.3919C21.846 45.524 22.2139 45.156 22.2139 44.7021C22.2139 44.2482 21.846 43.8801 21.3919 43.8801H18.7663Z" fill="#783294"/>
<path d="M24.9645 43.8801C24.5105 43.8801 24.1426 44.2482 24.1426 44.7021C24.1426 45.156 24.5105 45.524 24.9645 45.524H27.5902C28.0442 45.524 28.4121 45.156 28.4121 44.7021C28.4121 44.2482 28.0442 43.8801 27.5902 43.8801H24.9645Z" fill="#783294"/>
<path d="M43.5462 45.5238C44.0003 45.5238 44.3682 45.1557 44.3682 44.7018C44.3682 44.2479 44.0003 43.8799 43.5462 43.8799H40.9206C40.4666 43.8799 40.0986 44.2479 40.0986 44.7018C40.0986 45.1557 40.4666 45.5238 40.9206 45.5238H43.5462Z" fill="#783294"/>
<path d="M49.6595 45.5238C50.1135 45.5238 50.4815 45.1557 50.4815 44.7018C50.4815 44.2479 50.1135 43.8799 49.6595 43.8799H47.0339C46.5799 43.8799 46.2119 44.2479 46.2119 44.7018C46.2119 45.1557 46.5799 45.5238 47.0339 45.5238H49.6595Z" fill="#783294"/>
<path d="M17.9383 20.1399C23.4866 14.5913 32.5148 14.5915 38.0632 20.1399C38.2237 20.3003 38.434 20.3806 38.6444 20.3806C38.8547 20.3806 39.065 20.3003 39.2256 20.1399C39.5465 19.819 39.5465 19.2985 39.2256 18.9776C33.0362 12.7881 22.9653 12.788 16.7758 18.9776C16.4549 19.2985 16.4549 19.819 16.7758 20.1399C17.0969 20.4609 17.6173 20.4609 17.9383 20.1399Z" fill="#783294"/>
<path d="M36.1073 23.2575C36.4282 22.9365 36.4282 22.4161 36.1073 22.0952C31.6414 17.6294 24.3777 17.6249 19.9061 22.0815C19.6515 22.3241 19.5729 22.7131 19.7384 23.0441C19.8823 23.3321 20.1727 23.4987 20.4741 23.4987C20.5976 23.4987 20.7231 23.4708 20.8411 23.4117C20.9231 23.3707 20.9963 23.3171 21.0586 23.2538C24.8886 19.4278 31.1167 19.4294 34.9449 23.2575C35.2659 23.5784 35.7863 23.5784 36.1073 23.2575Z" fill="#783294"/>
<path d="M32.4675 26.5572C32.6779 26.5572 32.8882 26.4769 33.0487 26.3165C33.3697 25.9956 33.3697 25.475 33.0487 25.1541C31.7003 23.8056 29.9074 23.063 28.0002 23.063C26.0933 23.063 24.3003 23.8056 22.9517 25.1541C22.6307 25.475 22.6307 25.9956 22.9517 26.3165C23.2726 26.6375 23.793 26.6375 24.1141 26.3165C25.1521 25.2785 26.5323 24.7068 28.0001 24.7068C29.4681 24.7068 30.8481 25.2785 31.8861 26.3165C32.0469 26.477 32.2572 26.5572 32.4675 26.5572Z" fill="#783294"/>
<path d="M25.6317 27.8278C25.4762 27.9817 25.3878 28.192 25.3878 28.4122C25.3776 29.1405 26.3007 29.5093 26.7957 28.9886C27.1181 28.6685 27.5457 28.4921 28.0004 28.4921C28.4573 28.4921 28.8868 28.6701 29.2098 28.9931C30.006 29.7358 31.1148 28.6262 30.3722 27.8307C29.0653 26.5238 26.9397 26.5229 25.6317 27.8278Z" fill="#783294"/>
</g>
<defs>
<clipPath id="clip0">
<rect width="56" height="56" fill="white"/>
</clipPath>
</defs>
</svg>
