<svg width="24" height="24" viewBox="0 0 24 24" fill="none" xmlns="http://www.w3.org/2000/svg">
<path d="M22.5 2.00002H1.5C0.672984 2.00002 0 2.67301 0 3.50002V17.5C0 18.3271 0.672984 19 1.5 19H9.99998V20.077L4.41797 21.007C4.14595 21.052 3.96197 21.31 4.00697 21.5821C4.04798 21.8271 4.25995 22 4.49995 22C4.52695 22 4.55395 21.998 4.58194 21.9931L10.54 21H13.459L19.417 21.993C19.445 21.998 19.473 22 19.5 22C19.741 22 19.953 21.827 19.992 21.582C20.038 21.31 19.853 21.052 19.581 21.007L14 20.077V19H22.5C23.327 19 24 18.327 24 17.5V3.50002C24 2.67301 23.327 2.00002 22.5 2.00002ZM13 20H11V19H13V20ZM23 17.5C23 17.776 22.776 18 22.5 18H1.5C1.224 18 0.999984 17.776 0.999984 17.5V3.50002C0.999984 3.22402 1.224 3.00001 1.5 3.00001H22.5C22.776 3.00001 23 3.22402 23 3.50002V17.5Z" fill="white"/>
<path d="M12 13C11.448 13 11 13.448 11 14C11 14.552 11.448 15 12 15C12.552 15 13 14.552 13 14C13 13.448 12.552 13 12 13Z" fill="white"/>
<path d="M8.81813 10.318C8.62312 10.513 8.62312 10.83 8.81813 11.025C9.01313 11.22 9.33014 11.22 9.52514 11.025C10.8892 9.66099 13.1111 9.66099 14.4752 11.025C14.5732 11.122 14.7011 11.171 14.8292 11.171C14.9572 11.171 15.0842 11.123 15.1822 11.025C15.3772 10.83 15.3772 10.513 15.1822 10.318C13.4272 8.56402 10.5731 8.56402 8.81813 10.318Z" fill="white"/>
<path d="M7.40406 8.904C7.20906 9.099 7.20906 9.41602 7.40406 9.61102C7.59906 9.80602 7.91608 9.80602 8.11108 9.61102C10.2551 7.46602 13.7441 7.46602 15.8891 9.61102C15.9871 9.708 16.1151 9.75703 16.2431 9.75703C16.3711 9.75703 16.4991 9.70805 16.5961 9.61102C16.7911 9.41602 16.7911 9.099 16.5961 8.904C14.062 6.36998 9.93807 6.36998 7.40406 8.904Z" fill="white"/>
<path d="M10.2322 11.733C10.0372 11.928 10.0372 12.245 10.2322 12.44C10.4272 12.635 10.7442 12.635 10.9392 12.44C11.5052 11.874 12.4942 11.874 13.0602 12.44C13.1582 12.537 13.2862 12.586 13.4142 12.586C13.5422 12.586 13.6702 12.537 13.7672 12.44C13.9622 12.245 13.9622 11.928 13.7672 11.733C12.8242 10.789 11.1752 10.789 10.2322 11.733Z" fill="white"/>
</svg>
