<svg width="73" height="75" viewBox="0 0 73 75" fill="none" xmlns="http://www.w3.org/2000/svg">
<g clip-path="url(#clip0)">
<path d="M0 23.2755L7.55172 7.7583H65.4483L73 23.2755H0Z" fill="#285680"/>
<path d="M65.4482 7.7583H53.7138L22.9648 23.2755H72.9999L65.4482 7.7583Z" fill="#285680"/>
<path d="M2.51758 23.2759H70.4831V69.8276H2.51758V23.2759Z" fill="#D1D4D6"/>
<path d="M0 69.8276H73V75.0001H0V69.8276Z" fill="#D1D4D6"/>
<path d="M7.55273 43.9653H65.4493V69.8274H7.55273V43.9653Z" fill="#4398D1"/>
<path d="M65.4493 49.1377H52.8631V43.9653H50.3458V49.1377H37.7596V43.9653H35.2424V49.1377H22.6562V43.9653H20.1389V49.1377H7.55273V51.724H20.1389V69.8274H22.6562V51.724H35.2424V69.8274H37.7596V51.724H50.3458V69.8274H52.8631V51.724H65.4493V49.1377Z" fill="#3181BD"/>
<path d="M30.207 56.8965H32.7243V62.0689H30.207V56.8965Z" fill="#D1D4D6"/>
<path d="M40.2754 56.8965H42.7926V62.0689H40.2754V56.8965Z" fill="#D1D4D6"/>
<path d="M7.55273 28.4482H65.4493V43.9655H7.55273V28.4482Z" fill="#285680"/>
<path d="M33.9824 33.6206H36.4997V38.793H33.9824V33.6206Z" fill="#4398D1"/>
<path d="M28.9473 33.6206H31.4645V38.793H28.9473V33.6206Z" fill="#4398D1"/>
<path d="M39.0156 33.6206H41.5329V38.793H39.0156V33.6206Z" fill="#4398D1"/>
<path d="M44.0508 33.6206H46.568V38.793H44.0508V33.6206Z" fill="#4398D1"/>
<path d="M49.0859 33.6206H51.6032V38.793H49.0859V33.6206Z" fill="#4398D1"/>
<path d="M54.1191 33.6206H56.6364V38.793H54.1191V33.6206Z" fill="#4398D1"/>
<path d="M23.913 36.2068C23.913 34.7786 22.2224 33.6206 20.1372 33.6206C18.052 33.6206 16.3613 34.7786 16.3613 36.2068C16.3613 37.635 18.052 38.793 20.1372 38.793C22.2224 38.793 23.913 37.635 23.913 36.2068Z" fill="#D1D4D6"/>
<path d="M22.6562 0H50.3459V18.1035H22.6562V0Z" fill="#EB9B05"/>
<path d="M50.3459 0L36.5011 10.3448L22.6562 0H50.3459Z" fill="#FDB62F"/>
<path d="M31.0161 6.24561L22.6562 16.1466V18.1033H24.3377L33.0602 7.77296L31.0161 6.24561Z" fill="#D98B05"/>
<path d="M39.8809 7.8192L48.623 18.1034H50.345V16.1972L41.9237 6.29248L39.8809 7.8192Z" fill="#D98B05"/>
<path d="M10.0684 11.6377H13.8442V14.2239H10.0684V11.6377Z" fill="#4398D1"/>
<path d="M13.8438 14.2241H17.6196V16.8103H13.8438V14.2241Z" fill="#4398D1"/>
<path d="M7.55273 16.8101H11.3286V19.3963H7.55273V16.8101Z" fill="#4398D1"/>
<path d="M56.6387 12.9312H60.4145V15.5174H56.6387V12.9312Z" fill="#4398D1"/>
<path d="M61.6719 16.8101H65.4477V19.3963H61.6719V16.8101Z" fill="#4398D1"/>
<path d="M7.55273 41.3794H65.4493V43.9656H7.55273V41.3794Z" fill="#D1D4D6"/>
<path d="M2.51758 23.2759H70.4831V25.8621H2.51758V23.2759Z" fill="#C3C5C7"/>
<path d="M22.6562 18.1035H50.3459V20.6897H22.6562V18.1035Z" fill="#94502D"/>
<path d="M2.51758 67.2412H7.55206V69.8274H2.51758V67.2412Z" fill="#C3C5C7"/>
<path d="M7.55273 43.9653H65.4493V46.5515H7.55273V43.9653Z" fill="#3181BD"/>
</g>
<defs>
<clipPath id="clip0">
<rect width="73" height="75" fill="white"/>
</clipPath>
</defs>
</svg>
