<svg width="77" height="77" viewBox="0 0 77 77" fill="none" xmlns="http://www.w3.org/2000/svg">
<path d="M72.4175 53.1569L76.9315 25.4576C77.4009 22.6468 75.4108 20.002 72.4858 19.5497L11.576 10.1543C8.65126 9.70319 5.89941 11.6158 5.43004 14.4266L3.26562 27.3805V52.9957L72.4175 53.1569Z" fill="#146AA8"/>
<path d="M72.485 19.5501L55.1853 16.8823C43.5663 33.9681 24.7833 45.802 10.3789 53.0129L72.4166 53.1573L76.9306 25.4581C77.3999 22.6471 75.4098 20.0025 72.485 19.5501Z" fill="#126099"/>
<path d="M5.36427 26.0918H67.0532C70.0156 26.0918 72.4175 28.4001 72.4175 31.2471V64.7563C72.4175 67.6033 70.0156 69.9116 67.0532 69.9116H5.36427C2.40188 69.9114 0 67.6033 0 64.7563V31.2471C0 28.4001 2.40188 26.0918 5.36427 26.0918Z" fill="#4398D1"/>
<path d="M67.0547 26.0918H65.9818C53.3221 47.6911 29.6672 62.5073 15.2266 69.9114H67.0547C70.0171 69.9114 72.419 67.6031 72.419 64.7562V31.2471C72.419 28.4001 70.0171 26.0918 67.0547 26.0918Z" fill="#3E8CC7"/>
<path d="M20.1157 32.5361H6.70508V42.8467H20.1157V32.5361Z" fill="#FDB62F"/>
<path d="M10.7283 36.4028H6.70508V38.9804H10.7283V36.4028Z" fill="#FD7B2F"/>
<path d="M20.115 36.4028H16.0918V38.9804H20.115V36.4028Z" fill="#FD7B2F"/>
<path d="M59.0061 63.4672C62.7093 63.4672 65.7114 60.5821 65.7114 57.0232C65.7114 53.4642 62.7093 50.5791 59.0061 50.5791C55.3028 50.5791 52.3008 53.4642 52.3008 57.0232C52.3008 60.5821 55.3028 63.4672 59.0061 63.4672Z" fill="#FDB62F"/>
<path d="M50.9612 63.4672C54.6644 63.4672 57.6665 60.5821 57.6665 57.0232C57.6665 53.4642 54.6644 50.5791 50.9612 50.5791C47.2579 50.5791 44.2559 53.4642 44.2559 57.0232C44.2559 60.5821 47.2579 63.4672 50.9612 63.4672Z" fill="#DE4C3C"/>
<path d="M13.4096 51.8682H5.36328V54.4457H13.4096V51.8682Z" fill="#87CED9"/>
<path d="M26.8198 51.8682H18.7734V54.4457H26.8198V51.8682Z" fill="#87CED9"/>
<path d="M40.2319 51.8682H32.1855V54.4457H40.2319V51.8682Z" fill="#87CED9"/>
<path d="M40.231 59.6011H5.36328V62.1786H40.231V59.6011Z" fill="#87CED9"/>
<path d="M49.6176 32.5361H46.9355V37.6914H49.6176V32.5361Z" fill="#87CED9"/>
<path d="M54.9828 32.5361H52.3008V37.6914H54.9828V32.5361Z" fill="#87CED9"/>
<path d="M60.3461 32.5361H57.6641V37.6914H60.3461V32.5361Z" fill="#87CED9"/>
<path d="M65.7114 32.5361H63.0293V37.6914H65.7114V32.5361Z" fill="#87CED9"/>
</svg>
