<svg width="58" height="74" viewBox="0 0 58 74" fill="none" xmlns="http://www.w3.org/2000/svg">
<path d="M12.8594 47.4448V7.22655H41.8989V47.4448H12.8594Z" fill="white"/>
<path d="M41.8987 7.22656V39.2608C37.1688 39.2608 33.3344 42.9249 33.3344 47.4448H21.4238C21.4238 42.9249 17.5893 39.2608 12.8594 39.2608V7.22656H41.8987Z" fill="#D8F1D1"/>
<path d="M20.2344 21.2003C20.2344 17.4292 23.4336 14.3721 27.3799 14.3721C31.3263 14.3721 34.5255 17.4292 34.5255 21.2003C34.5255 24.9714 31.3263 28.0285 27.3799 28.0285C23.4336 28.0285 20.2344 24.9714 20.2344 21.2003Z" fill="white"/>
<path d="M1.51172 1.44531H55.9608V13.0078H1.51172V1.44531Z" fill="white"/>
<path d="M1.51172 1.44531H55.9608V13.0078H1.51172V1.44531Z" fill="#A7BDCD"/>
<path d="M1.51172 1.44531H55.9608V13.0078H1.51172V1.44531Z" fill="#B3E9F8"/>
<path d="M25.0133 65.2986L24.1128 63.4664C22.9748 61.1513 22.3848 58.6249 22.3848 56.0671C22.3848 52.9334 23.2702 49.8577 24.9475 47.1648L26.166 45.2088V36.3354C26.166 34.1004 28.062 32.2885 30.4009 32.2885C32.7398 32.2885 34.6358 34.1004 34.6358 36.3354V43.9802C34.6358 45.896 36.261 47.449 38.2658 47.449C40.2705 47.449 41.8957 45.896 41.8957 43.9802V24.0396C46.5735 24.0396 50.3656 27.6632 50.3656 32.1333V48.0992C50.3656 51.6121 49.4746 55.0726 47.7688 58.1843L43.869 65.2986H25.0133Z" fill="#FFDCD5"/>
<path d="M47.5762 65.2988V72.5549H21.5616V65.2988H47.5762Z" fill="#D8F1D1"/>
<path d="M55.9616 0H1.51248C0.677135 0 0 0.647211 0 1.44531V13.0078C0 13.8059 0.677135 14.4531 1.51248 14.4531H11.3457V47.445C11.3457 48.2431 12.0228 48.8903 12.8582 48.8903H22.3607C21.3832 51.159 20.8722 53.5971 20.8722 56.067C20.8722 58.7356 21.4824 61.4216 22.6359 63.8533H21.5605C20.7251 63.8533 20.048 64.5005 20.048 65.2986V72.5547C20.048 73.3528 20.7251 74 21.5605 74H47.5751C48.4104 74 49.0875 73.3528 49.0875 72.5547V65.2986C49.0875 64.5005 48.4104 63.8533 47.5751 63.8533H46.3686L49.1084 58.8549C50.9202 55.5497 51.8779 51.8304 51.8779 48.0991V32.1332C51.8779 27.3653 48.1982 23.4032 43.4102 22.7038V14.4531H55.9616C56.7969 14.4531 57.4741 13.8059 57.4741 13.0078V1.44531C57.4741 0.647211 56.7969 0 55.9616 0V0ZM46.0626 71.1094H23.073V66.7439H46.0626V71.1094ZM48.853 32.1332V48.0991C48.853 51.3651 48.0147 54.6205 46.4289 57.5138L42.9539 63.8533H25.9737L25.4816 62.8519C24.4451 60.7429 23.8971 58.3967 23.8971 56.067C23.8971 53.1947 24.7098 50.372 26.247 47.904L27.4655 45.9479C27.6046 45.7243 27.6783 45.4691 27.6783 45.2088V36.3354C27.6783 34.901 28.8996 33.7339 30.4008 33.7339C31.9019 33.7339 33.1232 34.901 33.1232 36.3354V43.9803C33.1232 46.69 35.43 48.8943 38.2656 48.8943C41.1012 48.8943 43.4081 46.69 43.4081 43.9803V25.643C46.5195 26.3048 48.853 28.9635 48.853 32.1332ZM40.3831 43.9801C40.3831 45.0959 39.4333 46.0036 38.2656 46.0036C37.098 46.0036 36.1482 45.0959 36.1482 43.9801V36.3353C36.1482 33.3069 33.5699 30.8431 30.4008 30.8431C27.2317 30.8431 24.6534 33.3069 24.6534 36.3353V44.811L23.913 45.9997H14.3705V14.4531H40.3851L40.3831 43.9801ZM54.4491 11.5625H3.02495V2.89062H54.4491V11.5625Z" fill="#5CD0B3"/>
</svg>
